<svg width="24" height="24" viewBox="0 0 24 24" fill="none" xmlns="http://www.w3.org/2000/svg">
<path d="M9.58537 4.7561H13.878C13.878 4.18685 13.6519 3.64092 13.2494 3.2384C12.8469 2.83589 12.301 2.60976 11.7317 2.60976C11.1625 2.60976 10.6165 2.83589 10.214 3.2384C9.8115 3.64092 9.58537 4.18685 9.58537 4.7561ZM7.97561 4.7561C7.97561 4.26284 8.07276 3.77441 8.26153 3.3187C8.45029 2.86299 8.72696 2.44892 9.07575 2.10014C9.42453 1.75135 9.8386 1.47468 10.2943 1.28592C10.75 1.09715 11.2385 1 11.7317 1C12.225 1 12.7134 1.09715 13.1691 1.28592C13.6248 1.47468 14.0389 1.75135 14.3877 2.10014C14.7365 2.44892 15.0131 2.86299 15.2019 3.3187C15.3907 3.77441 15.4878 4.26284 15.4878 4.7561H21.6585C21.872 4.7561 22.0767 4.8409 22.2277 4.99184C22.3786 5.14279 22.4634 5.34751 22.4634 5.56098C22.4634 5.77444 22.3786 5.97917 22.2277 6.13011C22.0767 6.28105 21.872 6.36585 21.6585 6.36585H20.242L18.9863 19.363C18.89 20.3589 18.4262 21.2832 17.6853 21.9556C16.9444 22.628 15.9796 23.0004 14.9791 23H8.48429C7.48395 23.0001 6.51943 22.6277 5.77877 21.9553C5.03812 21.2829 4.57445 20.3587 4.47815 19.363L3.22146 6.36585H1.80488C1.59141 6.36585 1.38669 6.28105 1.23574 6.13011C1.0848 5.97917 1 5.77444 1 5.56098C1 5.34751 1.0848 5.14279 1.23574 4.99184C1.38669 4.8409 1.59141 4.7561 1.80488 4.7561H7.97561ZM10.122 9.85366C10.122 9.64019 10.0372 9.43547 9.88621 9.28452C9.73526 9.13358 9.53054 9.04878 9.31707 9.04878C9.10361 9.04878 8.89888 9.13358 8.74794 9.28452C8.597 9.43547 8.5122 9.64019 8.5122 9.85366V17.9024C8.5122 18.1159 8.597 18.3206 8.74794 18.4716C8.89888 18.6225 9.10361 18.7073 9.31707 18.7073C9.53054 18.7073 9.73526 18.6225 9.88621 18.4716C10.0372 18.3206 10.122 18.1159 10.122 17.9024V9.85366ZM14.1463 9.04878C14.3598 9.04878 14.5645 9.13358 14.7155 9.28452C14.8664 9.43547 14.9512 9.64019 14.9512 9.85366V17.9024C14.9512 18.1159 14.8664 18.3206 14.7155 18.4716C14.5645 18.6225 14.3598 18.7073 14.1463 18.7073C13.9329 18.7073 13.7282 18.6225 13.5772 18.4716C13.4263 18.3206 13.3415 18.1159 13.3415 17.9024V9.85366C13.3415 9.64019 13.4263 9.43547 13.5772 9.28452C13.7282 9.13358 13.9329 9.04878 14.1463 9.04878ZM6.08039 19.2085C6.13827 19.8059 6.41656 20.3603 6.86098 20.7636C7.30541 21.167 7.88412 21.3904 8.48429 21.3902H14.9791C15.5793 21.3904 16.158 21.167 16.6024 20.7636C17.0469 20.3603 17.3251 19.8059 17.383 19.2085L18.6258 6.36585H4.83766L6.08039 19.2085Z" fill="#E12424"/>
</svg>
