<svg width="226" height="200" viewBox="0 0 226 200" fill="none" xmlns="http://www.w3.org/2000/svg">
<g clip-path="url(#clip0_2029_53213)">
<path d="M49.38 61.5828C48.7786 61.5828 48.2019 61.8217 47.7767 62.2469C47.3514 62.6721 47.1125 63.2489 47.1125 63.8502C47.1125 64.4516 47.3514 65.0283 47.7767 65.4535C48.2019 65.8788 48.7786 66.1177 49.38 66.1177H77.8819V65.1285C77.8818 64.4255 78.0563 63.7335 78.3897 63.1147C78.7231 62.4958 79.205 61.9694 79.7922 61.5828H49.38Z" fill="#E6E6E6"/>
<path d="M75.3154 56.4809H65.6787C65.0773 56.4809 64.5006 56.2421 64.0754 55.8168C63.6501 55.3916 63.4113 54.8149 63.4113 54.2135C63.4113 53.6121 63.6501 53.0354 64.0754 52.6102C64.5006 52.1849 65.0773 51.946 65.6787 51.946H75.3154C75.9167 51.946 76.4935 52.1849 76.9187 52.6102C77.3439 53.0354 77.5828 53.6121 77.5828 54.2135C77.5828 54.8149 77.3439 55.3916 76.9187 55.8168C76.4935 56.2421 75.9167 56.4809 75.3154 56.4809Z" fill="#E6E6E6"/>
<path d="M53.7022 40.3253H16.2892C15.6878 40.3253 15.1111 40.0864 14.6859 39.6612C14.2606 39.236 14.0217 38.6592 14.0217 38.0579C14.0217 37.4565 14.2606 36.8798 14.6859 36.4545C15.1111 36.0293 15.6878 35.7904 16.2892 35.7904H53.7022C54.3035 35.7904 54.8803 36.0293 55.3055 36.4545C55.7307 36.8798 55.9696 37.4565 55.9696 38.0579C55.9696 38.6592 55.7307 39.236 55.3055 39.6612C54.8803 40.0864 54.3035 40.3253 53.7022 40.3253Z" fill="#E6E6E6"/>
<path d="M37.4049 30.6887H32.5865C31.9852 30.6887 31.4084 30.4498 30.9832 30.0246C30.558 29.5994 30.3191 29.0226 30.3191 28.4213C30.3191 27.8199 30.558 27.2432 30.9832 26.8179C31.4084 26.3927 31.9852 26.1538 32.5865 26.1538H37.4049C38.0062 26.1538 38.583 26.3927 39.0082 26.8179C39.4334 27.2432 39.6723 27.8199 39.6723 28.4213C39.6723 29.0226 39.4334 29.5994 39.0082 30.0246C38.583 30.4498 38.0062 30.6887 37.4049 30.6887Z" fill="#E6E6E6"/>
<path d="M77.5973 107.185H42.3276C41.0502 107.184 39.8254 106.676 38.9221 105.773C38.0188 104.869 37.5107 103.644 37.5093 102.367V46.5764C37.5107 45.2989 38.0188 44.0742 38.9221 43.1709C39.8254 42.2676 41.0502 41.7595 42.3276 41.7581H98.6663C99.9438 41.7595 101.169 42.2676 102.072 43.1709C102.975 44.0742 103.483 45.2989 103.485 46.5764V60.4043H102.918V46.5764C102.917 45.4492 102.468 44.3686 101.671 43.5716C100.874 42.7745 99.7935 42.3262 98.6663 42.3249H42.3276C41.2005 42.3262 40.1198 42.7745 39.3228 43.5716C38.5257 44.3686 38.0774 45.4492 38.0761 46.5764V102.367C38.0774 103.494 38.5257 104.575 39.3228 105.372C40.1198 106.169 41.2005 106.617 42.3276 106.618H77.5973V107.185Z" fill="#CCCCCC"/>
<path d="M37.7928 73.7869H12.0829C10.8054 73.7854 9.58068 73.2773 8.67738 72.374C7.77407 71.4707 7.26596 70.246 7.26453 68.9685V23.6029C7.26596 22.3254 7.77407 21.1007 8.67738 20.1974C9.58068 19.2941 10.8054 18.786 12.0829 18.7845H57.9085C59.1859 18.786 60.4107 19.2941 61.314 20.1974C62.2173 21.1007 62.7254 22.3254 62.7268 23.6029V42.0414H62.1599V23.6029C62.1587 22.4757 61.7103 21.3951 60.9133 20.598C60.1163 19.801 59.0356 19.3527 57.9085 19.3514H12.0829C10.9557 19.3527 9.87506 19.801 9.07803 20.598C8.281 21.3951 7.83266 22.4757 7.83139 23.6029V68.9685C7.83266 70.0957 8.281 71.1763 9.07803 71.9734C9.87506 72.7704 10.9557 73.2187 12.0829 73.22H37.7928V73.7869Z" fill="#CCCCCC"/>
<path d="M152.549 61.5828C153.136 61.9694 153.618 62.4958 153.952 63.1147C154.285 63.7335 154.459 64.4255 154.459 65.1285V66.1177H182.961C183.563 66.1177 184.139 65.8788 184.565 65.4535C184.99 65.0283 185.229 64.4516 185.229 63.8502C185.229 63.2489 184.99 62.6721 184.565 62.2469C184.139 61.8217 183.563 61.5828 182.961 61.5828H152.549Z" fill="#E6E6E6"/>
<path d="M154.758 54.2135C154.759 53.6123 154.998 53.036 155.423 52.6109C155.848 52.1858 156.425 51.9467 157.026 51.946H166.663C167.264 51.946 167.841 52.1849 168.266 52.6102C168.691 53.0354 168.93 53.6121 168.93 54.2135C168.93 54.8149 168.691 55.3916 168.266 55.8168C167.841 56.2421 167.264 56.4809 166.663 56.4809H157.026C156.425 56.4803 155.848 56.2411 155.423 55.8161C154.998 55.391 154.759 54.8147 154.758 54.2135Z" fill="#E6E6E6"/>
<path d="M176.372 38.0579C176.372 37.4567 176.612 36.8804 177.037 36.4553C177.462 36.0302 178.038 35.7911 178.639 35.7904H216.052C216.653 35.7904 217.23 36.0293 217.655 36.4545C218.081 36.8798 218.32 37.4565 218.32 38.0579C218.32 38.6592 218.081 39.236 217.655 39.6612C217.23 40.0864 216.653 40.3253 216.052 40.3253H178.639C178.038 40.3246 177.462 40.0855 177.037 39.6604C176.612 39.2353 176.372 38.659 176.372 38.0579Z" fill="#E6E6E6"/>
<path d="M192.669 28.4213C192.67 27.8201 192.909 27.2438 193.334 26.8187C193.759 26.3936 194.335 26.1545 194.936 26.1538H199.755C200.356 26.1538 200.933 26.3927 201.358 26.8179C201.783 27.2432 202.022 27.8199 202.022 28.4213C202.022 29.0226 201.783 29.5994 201.358 30.0246C200.933 30.4498 200.356 30.6887 199.755 30.6887H194.936C194.335 30.688 193.759 30.4489 193.334 30.0238C192.909 29.5988 192.67 29.0224 192.669 28.4213Z" fill="#E6E6E6"/>
<path d="M154.744 107.185H190.014C191.291 107.184 192.516 106.676 193.419 105.773C194.322 104.869 194.831 103.644 194.832 102.367V46.5764C194.831 45.2989 194.322 44.0742 193.419 43.1709C192.516 42.2676 191.291 41.7595 190.014 41.7581H133.675C132.397 41.7595 131.173 42.2676 130.269 43.1709C129.366 44.0742 128.858 45.2989 128.857 46.5764V60.4043H129.423V46.5764C129.425 45.4492 129.873 44.3686 130.67 43.5716C131.467 42.7745 132.548 42.3262 133.675 42.3249H190.014C191.141 42.3262 192.221 42.7745 193.018 43.5716C193.816 44.3686 194.264 45.4492 194.265 46.5764V102.367C194.264 103.494 193.816 104.575 193.018 105.372C192.221 106.169 191.141 106.617 190.014 106.618H154.744V107.185Z" fill="#CCCCCC"/>
<path d="M194.549 73.7869H220.258C221.536 73.7854 222.761 73.2773 223.664 72.374C224.567 71.4707 225.075 70.246 225.077 68.9685V23.6029C225.075 22.3254 224.567 21.1007 223.664 20.1974C222.761 19.2941 221.536 18.786 220.258 18.7845H174.433C173.155 18.786 171.931 19.2941 171.027 20.1974C170.124 21.1007 169.616 22.3254 169.615 23.6029V42.0414H170.181V23.6029C170.183 22.4757 170.631 21.3951 171.428 20.598C172.225 19.801 173.306 19.3527 174.433 19.3514H220.258C221.386 19.3527 222.466 19.801 223.263 20.598C224.06 21.3951 224.509 22.4757 224.51 23.6029V68.9685C224.509 70.0957 224.06 71.1763 223.263 71.9734C222.466 72.7704 221.386 73.2187 220.258 73.22H194.549V73.7869Z" fill="#CCCCCC"/>
<path d="M150.089 60.3101H82.1334C80.8563 60.3126 79.6322 60.8211 78.7291 61.7241C77.8261 62.6272 77.3176 63.8513 77.3151 65.1284V132.441C77.3164 133.718 77.8245 134.943 78.7278 135.846C79.6311 136.749 80.8559 137.258 82.1334 137.259H150.089C151.366 137.258 152.591 136.749 153.494 135.846C154.398 134.943 154.906 133.718 154.907 132.441V65.1284C154.906 63.8509 154.398 62.6261 153.494 61.7228C152.591 60.8195 151.366 60.3114 150.089 60.3101ZM154.34 132.441C154.339 133.568 153.891 134.648 153.094 135.445C152.297 136.242 151.216 136.691 150.089 136.692H82.1334C81.0063 136.691 79.9257 136.242 79.1287 135.445C78.3317 134.648 77.8833 133.568 77.8819 132.441V65.1284C77.8837 64.0014 78.3321 62.921 79.1291 62.1241C79.926 61.3271 81.0064 60.8787 82.1334 60.8769H150.089C151.216 60.8783 152.297 61.3267 153.094 62.1237C153.891 62.9207 154.339 64.0013 154.34 65.1284V132.441Z" fill="#3F3D56"/>
<path d="M144.737 86.5247H87.4842C86.8829 86.5247 86.3061 86.2858 85.8809 85.8605C85.4557 85.4353 85.2168 84.8586 85.2168 84.2572C85.2168 83.6558 85.4557 83.0791 85.8809 82.6539C86.3061 82.2286 86.8829 81.9897 87.4842 81.9897H144.737C145.339 81.9897 145.916 82.2286 146.341 82.6539C146.766 83.0791 147.005 83.6558 147.005 84.2572C147.005 84.8586 146.766 85.4353 146.341 85.8605C145.916 86.2858 145.339 86.5247 144.737 86.5247Z" fill="#CCCCCC"/>
<path d="M128.44 76.8881H103.782C103.18 76.8881 102.604 76.6492 102.178 76.2239C101.753 75.7987 101.514 75.222 101.514 74.6206C101.514 74.0192 101.753 73.4425 102.178 73.0173C102.604 72.592 103.18 72.3531 103.782 72.3531H128.44C129.042 72.3531 129.618 72.592 130.043 73.0173C130.469 73.4425 130.708 74.0192 130.708 74.6206C130.708 75.222 130.469 75.7987 130.043 76.2239C129.618 76.6492 129.042 76.8881 128.44 76.8881Z" fill="#EF5222"/>
<path d="M112.001 100.129H87.3426C86.7413 100.129 86.1645 99.8905 85.7393 99.4653C85.3141 99.04 85.0752 98.4633 85.0752 97.8619C85.0752 97.2606 85.3141 96.6838 85.7393 96.2586C86.1645 95.8334 86.7413 95.5945 87.3426 95.5945H112.001C112.603 95.5945 113.179 95.8334 113.605 96.2586C114.03 96.6838 114.269 97.2606 114.269 97.8619C114.269 98.4633 114.03 99.04 113.605 99.4653C113.179 99.8905 112.603 100.129 112.001 100.129Z" fill="#CCCCCC"/>
<path d="M112.001 110.05H87.3426C86.7413 110.05 86.1645 109.811 85.7393 109.385C85.3141 108.96 85.0752 108.383 85.0752 107.782C85.0752 107.181 85.3141 106.604 85.7393 106.179C86.1645 105.754 86.7413 105.515 87.3426 105.515H112.001C112.603 105.515 113.179 105.754 113.605 106.179C114.03 106.604 114.269 107.181 114.269 107.782C114.269 108.383 114.03 108.96 113.605 109.385C113.179 109.811 112.603 110.05 112.001 110.05Z" fill="#CCCCCC"/>
<path d="M112.001 119.97H87.3426C86.7413 119.97 86.1645 119.731 85.7393 119.305C85.3141 118.88 85.0752 118.304 85.0752 117.702C85.0752 117.101 85.3141 116.524 85.7393 116.099C86.1645 115.674 86.7413 115.435 87.3426 115.435H112.001C112.603 115.435 113.179 115.674 113.605 116.099C114.03 116.524 114.269 117.101 114.269 117.702C114.269 118.304 114.03 118.88 113.605 119.305C113.179 119.731 112.603 119.97 112.001 119.97Z" fill="#CCCCCC"/>
<path d="M142.755 102.073C145.092 102.073 146.987 100.179 146.987 97.8419C146.987 95.5049 145.092 93.6105 142.755 93.6105C140.418 93.6105 138.524 95.5049 138.524 97.8419C138.524 100.179 140.418 102.073 142.755 102.073Z" fill="#EF5222"/>
<path d="M142.336 99.456C142.241 99.4561 142.148 99.4253 142.072 99.3682L142.067 99.3647L141.073 98.604C140.98 98.5327 140.919 98.4273 140.903 98.3111C140.888 98.1949 140.92 98.0774 140.991 97.9844C141.062 97.8914 141.168 97.8305 141.284 97.8152C141.4 97.7998 141.517 97.8312 141.61 97.9026L142.255 98.3965L143.777 96.4108C143.812 96.3647 143.856 96.3261 143.906 96.2971C143.956 96.268 144.012 96.2492 144.069 96.2416C144.127 96.234 144.185 96.2378 144.241 96.2528C144.297 96.2678 144.35 96.2937 144.396 96.329L144.396 96.3291L144.387 96.3422L144.396 96.3291C144.489 96.4004 144.55 96.5058 144.565 96.6219C144.581 96.738 144.549 96.8555 144.478 96.9485L142.688 99.2831C142.646 99.3369 142.593 99.3804 142.532 99.4103C142.471 99.4402 142.404 99.4556 142.336 99.4554L142.336 99.456Z" fill="white"/>
<path d="M34.9957 13.1538C33.6949 13.1538 32.4233 12.7681 31.3418 12.0454C30.2602 11.3227 29.4172 10.2955 28.9195 9.09377C28.4217 7.89199 28.2914 6.5696 28.5452 5.2938C28.799 4.01801 29.4254 2.84612 30.3452 1.92632C31.265 1.00653 32.4369 0.380143 33.7127 0.126375C34.9885 -0.127394 36.3109 0.0028505 37.5126 0.500642C38.7144 0.998434 39.7416 1.84141 40.4642 2.92298C41.1869 4.00455 41.5727 5.27613 41.5727 6.57692C41.5707 8.32062 40.8771 9.99234 39.6441 11.2253C38.4111 12.4583 36.7394 13.1519 34.9957 13.1538ZM34.9957 0.566866C33.807 0.566873 32.6451 0.919362 31.6567 1.57976C30.6684 2.24016 29.8981 3.1788 29.4432 4.27699C28.9883 5.37519 28.8693 6.58361 29.1012 7.74944C29.3331 8.91527 29.9055 9.98616 30.746 10.8267C31.5865 11.6672 32.6574 12.2396 33.8233 12.4715C34.9891 12.7034 36.1975 12.5844 37.2957 12.1295C38.3939 11.6746 39.3325 10.9043 39.9929 9.91592C40.6533 8.92757 41.0058 7.76559 41.0058 6.57692C41.004 4.9835 40.3702 3.45586 39.2435 2.32915C38.1168 1.20243 36.5891 0.56866 34.9957 0.566866Z" fill="#CCCCCC"/>
<path d="M34.372 8.97769C34.2304 8.97793 34.0926 8.93213 33.9793 8.84719L33.9723 8.84192L32.4932 7.71048C32.4247 7.65797 32.3672 7.59247 32.324 7.51774C32.2809 7.44301 32.2528 7.3605 32.2415 7.27493C32.2302 7.18935 32.2359 7.10239 32.2582 7.01901C32.2805 6.93563 32.319 6.85745 32.3715 6.78895C32.424 6.72045 32.4895 6.66296 32.5642 6.61977C32.639 6.57658 32.7215 6.54853 32.807 6.53723C32.8926 6.52593 32.9796 6.53159 33.063 6.55389C33.1463 6.5762 33.2245 6.61471 33.293 6.66722L34.251 7.40188L36.5149 4.44844C36.5674 4.37997 36.6329 4.3225 36.7076 4.27933C36.7823 4.23616 36.8647 4.20812 36.9503 4.19682C37.0358 4.18552 37.1227 4.19118 37.2061 4.21348C37.2894 4.23578 37.3676 4.27427 37.436 4.32677L37.4362 4.32691L37.4222 4.34642L37.4366 4.32691C37.5748 4.43308 37.6651 4.58972 37.6879 4.76245C37.7107 4.93518 37.664 5.10989 37.5581 5.24825L34.8954 8.72059C34.8338 8.80059 34.7546 8.86533 34.6639 8.90979C34.5732 8.95424 34.4735 8.97721 34.3726 8.97691L34.372 8.97769Z" fill="#CCCCCC"/>
<path d="M76.7156 36.1118C75.4149 36.1118 74.1433 35.7261 73.0617 35.0034C71.9802 34.2807 71.1372 33.2535 70.6394 32.0518C70.1416 30.85 70.0114 29.5276 70.2652 28.2518C70.519 26.976 71.1454 25.8041 72.0652 24.8843C72.985 23.9645 74.1568 23.3381 75.4326 23.0844C76.7084 22.8306 78.0308 22.9609 79.2326 23.4587C80.4344 23.9564 81.4615 24.7994 82.1842 25.881C82.9069 26.9626 83.2926 28.2341 83.2926 29.5349C83.2907 31.2786 82.5971 32.9504 81.3641 34.1833C80.1311 35.4163 78.4594 36.1099 76.7156 36.1118ZM76.7156 23.5249C75.527 23.5249 74.365 23.8774 73.3767 24.5378C72.3883 25.1982 71.618 26.1368 71.1631 27.235C70.7082 28.3332 70.5892 29.5416 70.8212 30.7075C71.0531 31.8733 71.6255 32.9442 72.466 33.7847C73.3065 34.6252 74.3774 35.1976 75.5432 35.4295C76.7091 35.6614 77.9175 35.5424 79.0157 35.0875C80.1139 34.6326 81.0525 33.8623 81.7129 32.8739C82.3733 31.8856 82.7258 30.7236 82.7258 29.5349C82.724 27.9415 82.0902 26.4139 80.9634 25.2871C79.8367 24.1604 78.3091 23.5267 76.7156 23.5249Z" fill="#CCCCCC"/>
<path d="M76.092 31.9357C75.9504 31.9359 75.8126 31.8901 75.6993 31.8052L75.6923 31.7999L74.2132 30.6685C74.0748 30.5624 73.9843 30.4058 73.9615 30.2329C73.9386 30.0601 73.9854 29.8853 74.0915 29.747C74.1975 29.6086 74.3542 29.5181 74.527 29.4952C74.6998 29.4724 74.8747 29.5192 75.013 29.6252L75.971 30.3599L78.2349 27.4064C78.2874 27.338 78.3528 27.2805 78.4275 27.2373C78.5022 27.1942 78.5847 27.1661 78.6702 27.1548C78.7558 27.1435 78.8427 27.1492 78.9261 27.1715C79.0094 27.1938 79.0875 27.2323 79.156 27.2848L79.1562 27.2849L79.1422 27.3044L79.1566 27.2849C79.2947 27.3911 79.3851 27.5477 79.4079 27.7205C79.4307 27.8932 79.384 28.0679 79.2781 28.2063L76.6153 31.6786C76.5537 31.7586 76.4745 31.8233 76.3839 31.8678C76.2932 31.9122 76.1935 31.9352 76.0925 31.9349L76.092 31.9357Z" fill="#CCCCCC"/>
<path d="M142.755 111.993C145.092 111.993 146.987 110.099 146.987 107.762C146.987 105.425 145.092 103.531 142.755 103.531C140.418 103.531 138.524 105.425 138.524 107.762C138.524 110.099 140.418 111.993 142.755 111.993Z" fill="#EF5222"/>
<path d="M142.336 109.376C142.241 109.376 142.148 109.346 142.072 109.288L142.067 109.285L141.073 108.524C141.027 108.489 140.988 108.445 140.959 108.395C140.93 108.344 140.911 108.289 140.903 108.231C140.896 108.174 140.9 108.115 140.915 108.059C140.93 108.003 140.956 107.951 140.991 107.905C141.026 107.858 141.07 107.82 141.12 107.791C141.171 107.762 141.226 107.743 141.284 107.735C141.341 107.728 141.4 107.732 141.456 107.747C141.512 107.762 141.564 107.787 141.61 107.823L142.255 108.317L143.777 106.331C143.812 106.285 143.856 106.246 143.906 106.217C143.956 106.188 144.012 106.169 144.069 106.162C144.127 106.154 144.185 106.158 144.241 106.173C144.297 106.188 144.35 106.214 144.396 106.249L144.396 106.249L144.387 106.262L144.396 106.249C144.489 106.321 144.55 106.426 144.565 106.542C144.581 106.658 144.549 106.776 144.478 106.869L142.688 109.203C142.646 109.257 142.593 109.301 142.532 109.33C142.471 109.36 142.404 109.376 142.336 109.376L142.336 109.376Z" fill="white"/>
<path d="M142.755 121.933C145.092 121.933 146.987 120.039 146.987 117.702C146.987 115.365 145.092 113.471 142.755 113.471C140.418 113.471 138.524 115.365 138.524 117.702C138.524 120.039 140.418 121.933 142.755 121.933Z" fill="#EF5222"/>
<path d="M142.336 119.316C142.241 119.316 142.148 119.286 142.072 119.229L142.067 119.225L141.073 118.464C140.98 118.393 140.919 118.288 140.904 118.172C140.889 118.055 140.92 117.938 140.991 117.845C141.062 117.752 141.168 117.691 141.284 117.676C141.4 117.66 141.517 117.692 141.61 117.763L142.255 118.257L143.777 116.271C143.812 116.225 143.856 116.186 143.906 116.157C143.956 116.128 144.012 116.11 144.069 116.102C144.127 116.094 144.185 116.098 144.241 116.113C144.297 116.128 144.35 116.154 144.396 116.189L144.396 116.189L144.387 116.203L144.396 116.189C144.489 116.261 144.55 116.366 144.565 116.482C144.581 116.598 144.549 116.716 144.478 116.809L142.688 119.143C142.646 119.197 142.593 119.241 142.532 119.271C142.471 119.301 142.404 119.316 142.336 119.316L142.336 119.316Z" fill="white"/>
<path d="M116.117 54.5348C111.653 54.4587 109.625 51.0719 109.625 47.9573C109.625 44.8428 111.654 41.4564 116.108 41.381H116.117C120.572 41.457 122.6 44.8437 122.6 47.9583C122.6 51.0729 120.571 54.4594 116.117 54.5348ZM116.113 41.9478C112.045 42.019 110.192 45.1124 110.192 47.9573C110.192 50.8036 112.046 53.8985 116.117 53.9679C120.179 53.899 122.033 50.8044 122.033 47.9583C122.033 45.1133 120.18 42.0199 116.113 41.9478Z" fill="#EF5222"/>
<path d="M117.589 48.3151C118.727 50.2916 115.603 51.0635 114.409 49.8729L114.708 49.2334C116.651 50.9114 118.362 48.0049 115.395 48.2811V47.5804C118.112 47.7995 116.586 45.0645 114.776 46.6825L114.483 46.0431C115.959 44.5121 119.27 46.3634 116.932 47.8933C117.193 47.9543 117.425 48.1033 117.589 48.3151Z" fill="#EF5222"/>
<path d="M156.076 36.1118C154.776 36.1118 153.504 35.7261 152.422 35.0034C151.341 34.2807 150.498 33.2535 150 32.0518C149.502 30.85 149.372 29.5276 149.626 28.2518C149.88 26.976 150.506 25.8041 151.426 24.8843C152.346 23.9645 153.518 23.3381 154.793 23.0844C156.069 22.8306 157.392 22.9609 158.593 23.4587C159.795 23.9564 160.822 24.7994 161.545 25.881C162.268 26.9626 162.653 28.2341 162.653 29.5349C162.651 31.2786 161.958 32.9504 160.725 34.1833C159.492 35.4163 157.82 36.1099 156.076 36.1118ZM156.076 23.5249C154.888 23.5249 153.726 23.8774 152.737 24.5378C151.749 25.1982 150.979 26.1368 150.524 27.235C150.069 28.3332 149.95 29.5416 150.182 30.7075C150.414 31.8733 150.986 32.9442 151.827 33.7847C152.667 34.6252 153.738 35.1976 154.904 35.4295C156.07 35.6614 157.278 35.5424 158.376 35.0875C159.475 34.6326 160.413 33.8623 161.074 32.8739C161.734 31.8856 162.086 30.7236 162.086 29.5349C162.085 27.9415 161.451 26.4139 160.324 25.2871C159.197 24.1604 157.67 23.5267 156.076 23.5249Z" fill="#CCCCCC"/>
<path d="M157.903 31.011H157.216V31.9565H156.359V31.011H154.25V30.3579L156.515 27.1133H157.216V30.324H157.903V31.011ZM156.359 30.324V28.4805L155.08 30.324H156.359Z" fill="#CCCCCC"/>
<path d="M197.346 13.1538C196.045 13.1538 194.773 12.7681 193.692 12.0454C192.61 11.3227 191.767 10.2955 191.269 9.09374C190.772 7.89197 190.641 6.56957 190.895 5.29378C191.149 4.01799 191.775 2.8461 192.695 1.92631C193.615 1.00652 194.787 0.380137 196.063 0.126371C197.338 -0.127395 198.661 0.00285472 199.863 0.500648C201.064 0.998441 202.092 1.84142 202.814 2.92299C203.537 4.00455 203.923 5.27613 203.923 6.57692C203.921 8.32063 203.227 9.99235 201.994 11.2253C200.761 12.4583 199.089 13.1519 197.346 13.1538ZM197.346 0.566867C196.157 0.566881 194.995 0.919376 194.007 1.57978C193.018 2.24018 192.248 3.17883 191.793 4.27702C191.338 5.37521 191.219 6.58363 191.451 7.74946C191.683 8.91529 192.255 9.98617 193.096 10.8267C193.937 11.6672 195.007 12.2396 196.173 12.4715C197.339 12.7034 198.547 12.5844 199.646 12.1295C200.744 11.6746 201.682 10.9043 202.343 9.91591C203.003 8.92757 203.356 7.76559 203.356 6.57692C203.354 4.98349 202.72 3.45585 201.593 2.32914C200.467 1.20242 198.939 0.568653 197.346 0.566867Z" fill="#CCCCCC"/>
<path d="M198.325 6.07014C198.553 6.19596 198.74 6.38493 198.862 6.61431C198.993 6.8626 199.058 7.13988 199.053 7.42032C199.059 7.71506 198.984 8.00575 198.835 8.26051C198.687 8.5062 198.469 8.70258 198.209 8.82502C197.914 8.96393 197.59 9.03261 197.264 9.02569C196.958 9.02541 196.655 8.97368 196.366 8.87264C196.098 8.78602 195.851 8.64606 195.638 8.46119L195.931 7.82167C196.311 8.13546 196.785 8.31274 197.278 8.32515C197.531 8.34248 197.781 8.26075 197.975 8.09721C198.132 7.91809 198.218 7.68778 198.216 7.44969C198.215 7.21161 198.127 6.9822 197.968 6.80475C197.879 6.7224 197.775 6.65862 197.661 6.61716C197.547 6.57569 197.426 6.55737 197.305 6.56326C197.12 6.56206 196.938 6.59792 196.767 6.66872C196.6 6.73901 196.449 6.84454 196.325 6.97817H195.795V4.12805H198.828V4.80826H196.652V6.12785C196.909 5.95644 197.213 5.86858 197.522 5.87625C197.802 5.87037 198.079 5.93717 198.325 6.07014Z" fill="#CCCCCC"/>
<path d="M42.9263 147.625C42.7542 147.246 42.6675 146.833 42.6722 146.417C42.6769 146 42.7728 145.589 42.9533 145.214C43.1338 144.838 43.3945 144.507 43.7169 144.243C44.0394 143.979 44.4158 143.789 44.8196 143.686L45.6788 133.595L49.811 136.854L48.3616 145.938C48.4891 146.628 48.3592 147.341 47.9965 147.941C47.6337 148.541 47.0633 148.988 46.3934 149.196C45.7234 149.404 45.0004 149.359 44.3614 149.069C43.7224 148.78 43.2117 148.266 42.9262 147.625H42.9263Z" fill="#FFB8B8"/>
<path d="M45.5838 142.627C45.2865 142.588 45.0125 142.445 44.8102 142.224C44.6078 142.002 44.49 141.717 44.4775 141.417L43.9991 129.964C43.8271 125.848 44.6649 121.752 46.4393 118.034L50.6817 109.144C50.9659 108.609 51.3735 108.15 51.8708 107.805C52.368 107.459 52.9405 107.237 53.5407 107.157C54.1233 107.075 54.7171 107.135 55.2715 107.332C55.826 107.529 56.3246 107.857 56.725 108.288C56.9281 108.505 57.1106 108.741 57.27 108.991C57.5901 109.511 57.7754 110.102 57.8092 110.711C57.843 111.32 57.7241 111.927 57.4634 112.479L50.9582 130.25L50.4578 141.827C50.4501 142.003 50.4064 142.175 50.3293 142.333C50.2521 142.49 50.1433 142.63 50.0095 142.744C49.8757 142.858 49.7199 142.943 49.5517 142.993C49.3836 143.044 49.2069 143.06 49.0325 143.039L45.6007 142.63L45.5838 142.627Z" fill="#EF5222"/>
<path d="M33.4131 192.666L36.5949 194.063L43.4959 182.455L38.8 180.393L33.4131 192.666Z" fill="#FFB8B8"/>
<path d="M33.0575 191.271L39.3235 194.021L39.3238 194.022C39.8482 194.252 40.3221 194.583 40.7185 194.996C41.1149 195.41 41.426 195.897 41.634 196.431C41.842 196.964 41.9429 197.533 41.9309 198.106C41.9189 198.679 41.7942 199.243 41.564 199.768L41.5071 199.897L31.2477 195.394L33.0575 191.271Z" fill="#2F2E41"/>
<path d="M76.1296 196.529H79.6045L81.2574 183.126L76.129 183.126L76.1296 196.529Z" fill="#FFB8B8"/>
<path d="M75.2433 195.395L82.0864 195.394H82.0867C82.6594 195.394 83.2265 195.507 83.7556 195.726C84.2847 195.945 84.7654 196.267 85.1704 196.672C85.5754 197.076 85.8966 197.557 86.1157 198.086C86.3349 198.615 86.4477 199.183 86.4477 199.755V199.897L75.2435 199.897L75.2433 195.395Z" fill="#2F2E41"/>
<path d="M41.131 192.718C40.9973 192.718 40.8646 192.697 40.7374 192.656L34.8455 190.762C34.5273 190.659 34.2624 190.435 34.1074 190.138C33.9523 189.841 33.9196 189.496 34.0161 189.175L53.5545 126.958L68.1894 124.088L68.2409 124.172C77.9163 139.916 81.146 163.966 83.1948 189.448C83.22 189.781 83.1144 190.11 82.9006 190.367C82.6868 190.623 82.3816 190.786 82.0498 190.821L75.6085 191.465C75.3079 191.496 75.006 191.419 74.757 191.248C74.5081 191.077 74.3286 190.822 74.2508 190.53L62.4567 148.807C62.4335 148.722 62.3845 148.646 62.3164 148.59C62.2482 148.534 62.1644 148.501 62.0764 148.494C61.9885 148.488 61.9007 148.509 61.8254 148.555C61.7501 148.601 61.6908 148.669 61.6559 148.75L42.2989 191.947C42.2011 192.176 42.0383 192.371 41.8307 192.508C41.6231 192.645 41.3798 192.718 41.131 192.718Z" fill="#2F2E41"/>
<path d="M61.1158 102.044C64.9605 102.044 68.0772 98.9272 68.0772 95.0826C68.0772 91.2379 64.9605 88.1212 61.1158 88.1212C57.2711 88.1212 54.1544 91.2379 54.1544 95.0826C54.1544 98.9272 57.2711 102.044 61.1158 102.044Z" fill="#FFB8B8"/>
<path d="M52.3096 128.8L52.2619 128.7C52.2295 128.632 49.0222 121.828 49.3206 113.98C49.4195 111.404 50.4989 108.963 52.3382 107.157C54.1774 105.351 56.6374 104.316 59.2147 104.263C61.59 104.217 63.9056 105.01 65.7535 106.503C67.6014 107.996 68.8632 110.094 69.3166 112.426C70.2104 116.989 70.1881 121.311 69.2501 125.271L69.2292 125.359L69.1404 125.377L52.3096 128.8Z" fill="#EF5222"/>
<path d="M87.802 138.621C87.3898 138.56 86.996 138.409 86.6482 138.179C86.3005 137.95 86.0074 137.647 85.7895 137.292C85.5716 136.937 85.4341 136.538 85.3869 136.124C85.3397 135.71 85.3839 135.291 85.5162 134.896L77.498 128.708L82.4764 126.999L89.3274 133.138C89.9763 133.404 90.5051 133.899 90.8133 134.529C91.1216 135.159 91.188 135.881 91 136.557C90.812 137.232 90.3826 137.816 89.7932 138.196C89.2037 138.577 88.4953 138.728 87.802 138.621H87.802Z" fill="#FFB8B8"/>
<path d="M68.1251 124.978L68.1066 124.948L59.6537 111.259C59.3582 110.731 59.193 110.139 59.1719 109.534C59.1507 108.929 59.2742 108.328 59.5321 107.78C59.7786 107.246 60.1506 106.779 60.6164 106.42C61.0822 106.06 61.628 105.819 62.2073 105.716C62.4997 105.662 62.7963 105.636 63.0935 105.638C63.7033 105.65 64.3005 105.815 64.8308 106.116C65.361 106.417 65.8076 106.847 66.13 107.364L77.5457 122.458L87.007 129.149C87.1504 129.25 87.2713 129.38 87.3621 129.531C87.453 129.681 87.5118 129.848 87.535 130.022C87.5581 130.196 87.545 130.373 87.4966 130.542C87.4482 130.711 87.3654 130.868 87.2535 131.003L85.0508 133.666C84.8583 133.901 84.5883 134.058 84.2897 134.111C83.9911 134.164 83.6834 134.108 83.4224 133.954L68.1251 124.978Z" fill="#EF5222"/>
<path d="M59.8709 94.6507C60.384 93.8067 61.5162 93.5683 62.4992 93.6645C63.4822 93.7608 64.4382 94.1063 65.4259 94.0987C68.1684 94.0774 70.2854 90.7349 69.1323 88.2464C68.1867 86.2056 65.825 85.3095 63.6886 84.6062C59.2092 83.1315 54.0637 81.7146 49.9989 84.1057C48.7036 84.8902 47.6412 86.0063 46.9214 87.3387C46.2017 88.6711 45.8507 90.1715 45.9048 91.6849C45.9962 93.5667 46.7169 95.4996 46.1074 97.2822C45.4042 99.3388 43.1748 100.442 41.0679 100.976C37.3746 101.912 33.4806 101.761 29.7642 102.6C26.0478 103.439 22.2395 105.668 21.2377 109.344C20.5797 111.758 21.2663 114.357 22.4034 116.587C23.5635 118.861 25.1757 120.875 27.1413 122.504C29.1068 124.134 31.3843 125.345 33.8344 126.064C36.2844 126.782 38.8553 126.993 41.3897 126.684C43.9241 126.374 46.3686 125.55 48.5734 124.263C53.0663 121.639 56.31 117.205 58.2438 112.375C59.3403 109.558 60.1122 106.625 60.5446 103.633C60.9777 100.832 60.6102 98.0009 59.8257 95.2774C59.7886 95.1756 59.7735 95.0672 59.7813 94.9592C59.7891 94.8512 59.8196 94.7461 59.8709 94.6507Z" fill="#2F2E41"/>
<path d="M109.194 200H1.20677C1.1316 200 1.05951 199.97 1.00635 199.917C0.953201 199.864 0.92334 199.792 0.92334 199.717C0.92334 199.641 0.953201 199.569 1.00635 199.516C1.05951 199.463 1.1316 199.433 1.20677 199.433H109.194C109.269 199.433 109.341 199.463 109.395 199.516C109.448 199.569 109.478 199.641 109.478 199.717C109.478 199.792 109.448 199.864 109.395 199.917C109.341 199.97 109.269 200 109.194 200Z" fill="#3F3D56"/>
</g>
<defs>
<clipPath id="clip0_2029_53213">
<rect width="224.153" height="200" fill="white" transform="translate(0.92334)"/>
</clipPath>
</defs>
</svg>
