<svg id="Layer_1" data-name="Layer 1" xmlns="http://www.w3.org/2000/svg" xmlns:xlink="http://www.w3.org/1999/xlink" viewBox="0 0 294.82 60"><defs><style>.cls-1,.cls-16,.cls-17,.cls-8{fill:none;}.cls-2,.cls-4{fill:#fff;}.cls-3{clip-path:url(#clip-path);}.cls-10,.cls-12,.cls-14,.cls-15,.cls-18,.cls-4,.cls-5,.cls-6,.cls-7,.cls-9{fill-rule:evenodd;}.cls-5{fill:#f5f5f6;}.cls-6{fill:#ea2849;}.cls-7{fill:#ea2d4e;}.cls-17,.cls-8{stroke:#fff;}.cls-8{stroke-width:1.85px;}.cls-13,.cls-9{fill:#0d623e;}.cls-10{fill:#10623e;}.cls-11,.cls-12{fill:#e91e44;}.cls-14{fill:#006b3a;}.cls-15{fill:#e8262d;}.cls-16{stroke:#e8262d;stroke-linecap:round;stroke-width:0.96px;}.cls-16,.cls-17{stroke-linejoin:round;}.cls-17{stroke-width:4.37px;}.cls-18{fill:#0c6d39;}</style><clipPath id="clip-path"><rect class="cls-1" x="58.45" y="8" width="180" height="44"/></clipPath></defs><path class="cls-2" d="M0,0H294.82L261.66,46.56A32,32,0,0,1,235.59,60H59.22A32,32,0,0,1,33.16,46.56Z"/><g class="cls-3"><path class="cls-4" d="M58.7,43.71H95.48V12.51H58.7Z"/><path class="cls-5" d="M97.26,9.16a1.31,1.31,0,0,1,1.32,1.3h0a1.34,1.34,0,0,1-1.34,1.32h0a1.32,1.32,0,0,1,0-2.63Z"/><path class="cls-6" d="M97.65,10.13a.3.3,0,0,1-.26.26H97a.12.12,0,0,1-.12-.12h0v-.4A.12.12,0,0,1,97,9.75h.39a.29.29,0,0,1,.26.3A.24.24,0,0,1,97.65,10.13Zm.28,1.14a1.1,1.1,0,0,0-.05-.4.48.48,0,0,0-.15-.32v-.13a.43.43,0,0,0,.16-.47.37.37,0,0,0-.2-.28.5.5,0,0,0-.27-.08h-.65a.11.11,0,0,0-.1.11v1.57h0a.13.13,0,0,0,.09.07s.13,0,.13-.08v-.53c0-.18,0-.17.17-.17h.28a.29.29,0,0,1,.29.29h0v.43a.15.15,0,0,0,.18,0S97.94,11.32,97.93,11.27Z"/><path class="cls-7" d="M97.26,11.72a1.24,1.24,0,1,1,1.23-1.25h0A1.24,1.24,0,0,1,97.26,11.72Zm0-2.72a1.49,1.49,0,1,0,1.48,1.5v0A1.48,1.48,0,0,0,97.26,9Z"/><path class="cls-4" d="M64,50.26h-.61a.11.11,0,0,1-.1-.1v-.4a.24.24,0,0,1,0-.12,1.8,1.8,0,0,0,.07-.83.08.08,0,0,0-.07-.08h-.2s-.12.06-.12.1a2.11,2.11,0,0,0,.07.79,1.32,1.32,0,0,1,0,.56.1.1,0,0,1-.07.09H61.82a.13.13,0,0,1-.13-.12v-.32a.43.43,0,0,1,.06-.27.55.55,0,0,0,.08-.31V47.6a.49.49,0,0,0,0-.24.8.8,0,0,1-.1-.5V46.7a.13.13,0,0,1,.13-.13H63a.13.13,0,0,1,.13.13,1.57,1.57,0,0,1-.07.68,1.1,1.1,0,0,0,0,.51.13.13,0,0,0,.07.09,1,1,0,0,0,.24,0h.06a2,2,0,0,0,0-.6.7.7,0,0,1-.07-.43v-.24c0-.08,0-.06.08-.08h1.21a.13.13,0,0,1,.13.12V47a.51.51,0,0,1-.08.34.43.43,0,0,0-.06.27v1.61a.75.75,0,0,0,.09.39.61.61,0,0,1,0,.19v.32a.14.14,0,0,1-.12.16H64Z"/><path class="cls-8" d="M64,50.26h-.61a.11.11,0,0,1-.1-.1v-.4a.24.24,0,0,1,0-.12,1.8,1.8,0,0,0,.07-.83.08.08,0,0,0-.07-.08h-.2s-.12.06-.12.1a2.11,2.11,0,0,0,.07.79,1.32,1.32,0,0,1,0,.56.1.1,0,0,1-.07.09H61.82a.13.13,0,0,1-.13-.12v-.32a.43.43,0,0,1,.06-.27.55.55,0,0,0,.08-.31V47.6a.49.49,0,0,0,0-.24.8.8,0,0,1-.1-.5V46.7a.13.13,0,0,1,.13-.13H63a.13.13,0,0,1,.13.13,1.57,1.57,0,0,1-.07.68,1.1,1.1,0,0,0,0,.51.13.13,0,0,0,.07.09,1,1,0,0,0,.24,0h.06a2,2,0,0,0,0-.6.7.7,0,0,1-.07-.43v-.24c0-.08,0-.06.08-.08h1.21a.13.13,0,0,1,.13.12V47a.51.51,0,0,1-.08.34.43.43,0,0,0-.06.27v1.61a.75.75,0,0,0,.09.39.61.61,0,0,1,0,.19v.32a.14.14,0,0,1-.12.16H64Z"/><path class="cls-4" d="M66.77,48.39v-.81a.48.48,0,0,0-.08-.31.09.09,0,0,1,0-.07,2.62,2.62,0,0,1,0-.56h1.13a.09.09,0,0,0,0-.07l-.17-.11a.42.42,0,0,1-.14-.5.34.34,0,0,1,.15-.18.49.49,0,0,1,.67.19.58.58,0,0,1,0,.14.79.79,0,0,1-.12.54,1.22,1.22,0,0,1-.32.36.25.25,0,0,0-.11.24v2a3.23,3.23,0,0,1,0,.44.92.92,0,0,1-.71.7,2.22,2.22,0,0,1-1.2,0,.93.93,0,0,1-.65-.55.63.63,0,0,1-.06-.27V47.7a.62.62,0,0,0-.1-.42.21.21,0,0,1,0-.11v-.53h1.26c.12,0,.16,0,.16.18v.32a.32.32,0,0,1-.06.23.43.43,0,0,0-.08.27v1.77a.21.21,0,0,0,.26.16h0a.11.11,0,0,0,.11-.11,1.31,1.31,0,0,0,0-.28v-.79Z"/><path class="cls-8" d="M66.77,48.39v-.81a.48.48,0,0,0-.08-.31.09.09,0,0,1,0-.07,2.62,2.62,0,0,1,0-.56h1.13a.09.09,0,0,0,0-.07l-.17-.11a.42.42,0,0,1-.14-.5.34.34,0,0,1,.15-.18.49.49,0,0,1,.67.19.58.58,0,0,1,0,.14.79.79,0,0,1-.12.54,1.22,1.22,0,0,1-.32.36.25.25,0,0,0-.11.24v2a3.23,3.23,0,0,1,0,.44.92.92,0,0,1-.71.7,2.22,2.22,0,0,1-1.2,0,.93.93,0,0,1-.65-.55.63.63,0,0,1-.06-.27V47.7a.62.62,0,0,0-.1-.42.21.21,0,0,1,0-.11v-.53h1.26c.12,0,.16,0,.16.18v.32a.32.32,0,0,1-.06.23.43.43,0,0,0-.08.27v1.77a.21.21,0,0,0,.26.16h0a.11.11,0,0,0,.11-.11,1.31,1.31,0,0,0,0-.28v-.79Z"/><path class="cls-4" d="M90.27,46.58c.75,0,.54-.13.82.55.11.27.22.54.32.82h0v-.09a2.67,2.67,0,0,0,0-.4.45.45,0,0,0,0-.23,1.72,1.72,0,0,1,0-.64h1a.11.11,0,0,1,.1.1v.4a.43.43,0,0,1,0,.16.62.62,0,0,0-.1.42v2.5a.11.11,0,0,1-.1.1h-.93a.15.15,0,0,1-.09-.06,3.18,3.18,0,0,1-.16-.32l-.45-1h-.07v.4a.46.46,0,0,0,.06.23.48.48,0,0,1,.07.31v.36a.12.12,0,0,1-.12.12h-.9a.11.11,0,0,1-.11-.1v-.32a.61.61,0,0,1,.07-.35.43.43,0,0,0,.06-.27v-1.7a.52.52,0,0,0-.08-.3.38.38,0,0,1,0-.15v-.45a.1.1,0,0,1,.11-.09h.5Z"/><path class="cls-8" d="M90.27,46.58c.75,0,.54-.13.82.55.11.27.22.54.32.82h0v-.09a2.67,2.67,0,0,0,0-.4.45.45,0,0,0,0-.23,1.72,1.72,0,0,1,0-.64h1a.11.11,0,0,1,.1.1v.4a.43.43,0,0,1,0,.16.62.62,0,0,0-.1.42v2.5a.11.11,0,0,1-.1.1h-.93a.15.15,0,0,1-.09-.06,3.18,3.18,0,0,1-.16-.32l-.45-1h-.07v.4a.46.46,0,0,0,.06.23.48.48,0,0,1,.07.31v.36a.12.12,0,0,1-.12.12h-.9a.11.11,0,0,1-.11-.1v-.32a.61.61,0,0,1,.07-.35.43.43,0,0,0,.06-.27v-1.7a.52.52,0,0,0-.08-.3.38.38,0,0,1,0-.15v-.45a.1.1,0,0,1,.11-.09h.5Z"/><path class="cls-4" d="M72.2,46.57h.33c.29,0,.26,0,.37.26s.29.76.43,1.13h.06a1.73,1.73,0,0,0-.07-.75,1.75,1.75,0,0,1,0-.56h1c.15,0,.18,0,.18.2v.28a.45.45,0,0,1,0,.23.56.56,0,0,0-.09.31v2.57l-.06.06h-.92a.19.19,0,0,1-.16-.11l-.48-1.11c0-.08-.07-.15-.1-.22h0v.48a.24.24,0,0,0,0,.12,1.13,1.13,0,0,1,.09.7.12.12,0,0,1-.12.12h-.9a.13.13,0,0,1-.13-.13v-.41a.33.33,0,0,1,.06-.19.46.46,0,0,0,.08-.3v-1.7a.32.32,0,0,0,0-.23.49.49,0,0,1-.09-.35v-.28a.12.12,0,0,1,.12-.12h.47Z"/><path class="cls-8" d="M72.2,46.57h.33c.29,0,.26,0,.37.26s.29.76.43,1.13h.06a1.73,1.73,0,0,0-.07-.75,1.75,1.75,0,0,1,0-.56h1c.15,0,.18,0,.18.2v.28a.45.45,0,0,1,0,.23.56.56,0,0,0-.09.31v2.57l-.06.06h-.92a.19.19,0,0,1-.16-.11l-.48-1.11c0-.08-.07-.15-.1-.22h0v.48a.24.24,0,0,0,0,.12,1.13,1.13,0,0,1,.09.7.12.12,0,0,1-.12.12h-.9a.13.13,0,0,1-.13-.13v-.41a.33.33,0,0,1,.06-.19.46.46,0,0,0,.08-.3v-1.7a.32.32,0,0,0,0-.23.49.49,0,0,1-.09-.35v-.28a.12.12,0,0,1,.12-.12h.47Z"/><path class="cls-4" d="M93,48.39v-.77a1,1,0,0,1,0-.35.87.87,0,0,1,.5-.6,1.05,1.05,0,0,1,.43-.11h.56a2,2,0,0,1,1.1.35.13.13,0,0,1,.08.13v.69a.12.12,0,0,1-.11.13h-.89c-.08,0-.11,0-.12-.13a1.27,1.27,0,0,1,0-.2.25.25,0,0,0-.18-.19.25.25,0,0,0-.21.2v1.81a.2.2,0,0,0,.15.18.22.22,0,0,0,.23-.12.64.64,0,0,0,0-.43l-.05-.06a.12.12,0,0,1-.09-.12v-.48a.11.11,0,0,1,.1-.1h1.06a.12.12,0,0,1,.12.12h0v1.54a.18.18,0,0,1-.1.16l-.29.14a3.1,3.1,0,0,1-1.48.12l-.23-.06a.83.83,0,0,1-.55-.6,2.24,2.24,0,0,1-.07-.51V48.4Z"/><path class="cls-8" d="M93,48.39v-.77a1,1,0,0,1,0-.35.87.87,0,0,1,.5-.6,1.05,1.05,0,0,1,.43-.11h.56a2,2,0,0,1,1.1.35.13.13,0,0,1,.08.13v.69a.12.12,0,0,1-.11.13h-.89c-.08,0-.11,0-.12-.13a1.27,1.27,0,0,1,0-.2.25.25,0,0,0-.18-.19.25.25,0,0,0-.21.2v1.81a.2.2,0,0,0,.15.18.22.22,0,0,0,.23-.12.64.64,0,0,0,0-.43l-.05-.06a.12.12,0,0,1-.09-.12v-.48a.11.11,0,0,1,.1-.1h1.06a.12.12,0,0,1,.12.12h0v1.54a.18.18,0,0,1-.1.16l-.29.14a3.1,3.1,0,0,1-1.48.12l-.23-.06a.83.83,0,0,1-.55-.6,2.24,2.24,0,0,1-.07-.51V48.4Z"/><path class="cls-4" d="M74.9,48.39v-.72a1.41,1.41,0,0,1,0-.29.86.86,0,0,1,.48-.69.89.89,0,0,1,.42-.12h.57a2,2,0,0,1,1.14.35.15.15,0,0,1,.06.09v.77s-.06.09-.11.09H76.6c-.07,0-.11,0-.12-.13V47.5a.09.09,0,0,0,0-.07.15.15,0,0,0-.21,0l0,0a.36.36,0,0,0-.11.16.67.67,0,0,0,0,.2v1.45a.67.67,0,0,0,0,.2.23.23,0,0,0,.18.15c.08,0,.2-.08.2-.16v-.36a.09.09,0,0,0,0-.07.23.23,0,0,1-.12-.27v-.36a.11.11,0,0,1,.1-.1h1c.12,0,.17,0,.17.17v1.45a.25.25,0,0,1-.17.25,2.55,2.55,0,0,1-.53.18,3,3,0,0,1-1.2,0,.91.91,0,0,1-.78-.77v-.48Z"/><path class="cls-8" d="M74.9,48.39v-.72a1.41,1.41,0,0,1,0-.29.86.86,0,0,1,.48-.69.89.89,0,0,1,.42-.12h.57a2,2,0,0,1,1.14.35.15.15,0,0,1,.06.09v.77s-.06.09-.11.09H76.6c-.07,0-.11,0-.12-.13V47.5a.09.09,0,0,0,0-.07.15.15,0,0,0-.21,0l0,0a.36.36,0,0,0-.11.16.67.67,0,0,0,0,.2v1.45a.67.67,0,0,0,0,.2.23.23,0,0,0,.18.15c.08,0,.2-.08.2-.16v-.36a.09.09,0,0,0,0-.07.23.23,0,0,1-.12-.27v-.36a.11.11,0,0,1,.1-.1h1c.12,0,.17,0,.17.17v1.45a.25.25,0,0,1-.17.25,2.55,2.55,0,0,1-.53.18,3,3,0,0,1-1.2,0,.91.91,0,0,1-.78-.77v-.48Z"/><path class="cls-4" d="M81.65,48.4v.81a.56.56,0,0,0,.06.31.46.46,0,0,1,.08.3v.33a.12.12,0,0,1-.12.12H80.48a.13.13,0,0,1-.13-.13v-.36a.33.33,0,0,1,.06-.19.5.5,0,0,0,.08-.27V47.51s0-.08-.07-.07-.07,0-.08.08a.84.84,0,0,0,0,.16v.44a.12.12,0,0,1-.11.1h-.56c-.12,0-.17,0-.17-.18V46.73a.14.14,0,0,1,.12-.16h3s.07,0,.08.08a.24.24,0,0,1,0,.12V48a.24.24,0,0,1,0,.12.1.1,0,0,1-.08.07,2.58,2.58,0,0,1-.68,0l-.06-.06c-.06-.06,0-.08,0-.12v-.52c0-.05-.06-.07-.09-.06h0v.89Z"/><path class="cls-8" d="M81.65,48.4v.81a.56.56,0,0,0,.06.31.46.46,0,0,1,.08.3v.33a.12.12,0,0,1-.12.12H80.48a.13.13,0,0,1-.13-.13v-.36a.33.33,0,0,1,.06-.19.5.5,0,0,0,.08-.27V47.51s0-.08-.07-.07-.07,0-.08.08a.84.84,0,0,0,0,.16v.44a.12.12,0,0,1-.11.1h-.56c-.12,0-.17,0-.17-.18V46.73a.14.14,0,0,1,.12-.16h3s.07,0,.08.08a.24.24,0,0,1,0,.12V48a.24.24,0,0,1,0,.12.1.1,0,0,1-.08.07,2.58,2.58,0,0,1-.68,0l-.06-.06c-.06-.06,0-.08,0-.12v-.52c0-.05-.06-.07-.09-.06h0v.89Z"/><path class="cls-4" d="M70,49.05v.32a.18.18,0,0,1-.17.14.19.19,0,0,1-.19-.11.24.24,0,0,1,0-.12.67.67,0,0,1,0-.2V47.75a1,1,0,0,1,0-.24.23.23,0,0,1,.16-.17.18.18,0,0,1,.24.11v.91C70.05,48.57,70,48.82,70,49.05Zm1-3.29a.37.37,0,0,0-.18.08.42.42,0,0,0,0,.59l0,0,.18.09v.1c0,.1-.1.13-.19.08a1.41,1.41,0,0,0-.56-.21,2.64,2.64,0,0,0-1.12,0,1.34,1.34,0,0,0-.3.12.79.79,0,0,0-.44.59V49a3.91,3.91,0,0,0,0,.48.89.89,0,0,0,.52.68l.27.09a3,3,0,0,0,1.2,0,1.17,1.17,0,0,0,.26-.1A.74.74,0,0,0,71,49.7a1.34,1.34,0,0,0,.07-.39V47.53A3.18,3.18,0,0,0,71,47.1c.07-.15.22-.23.31-.37a.77.77,0,0,0,.16-.41.48.48,0,0,0-.39-.56H71Z"/><path class="cls-8" d="M70,49.05v.32a.18.18,0,0,1-.17.14.19.19,0,0,1-.19-.11.24.24,0,0,1,0-.12.67.67,0,0,1,0-.2V47.75a1,1,0,0,1,0-.24.23.23,0,0,1,.16-.17.18.18,0,0,1,.24.11v.91C70.05,48.57,70,48.82,70,49.05Zm1-3.29a.37.37,0,0,0-.18.08.42.42,0,0,0,0,.59l0,0,.18.09v.1c0,.1-.1.13-.19.08a1.41,1.41,0,0,0-.56-.21,2.64,2.64,0,0,0-1.12,0,1.34,1.34,0,0,0-.3.12.79.79,0,0,0-.44.59V49a3.91,3.91,0,0,0,0,.48.89.89,0,0,0,.52.68l.27.09a3,3,0,0,0,1.2,0,1.17,1.17,0,0,0,.26-.1A.74.74,0,0,0,71,49.7a1.34,1.34,0,0,0,.07-.39V47.53A3.18,3.18,0,0,0,71,47.1c.07-.15.22-.23.31-.37a.77.77,0,0,0,.16-.41.48.48,0,0,0-.39-.56H71Z"/><path class="cls-4" d="M84.72,47.87a.29.29,0,0,1-.32.23h0V48a.81.81,0,0,0,0-.22v-.3c0-.16.07-.16.21-.14a.22.22,0,0,1,.2.17A.86.86,0,0,1,84.72,47.87ZM86,49.71a.21.21,0,0,0,0-.11.54.54,0,0,1-.09-.35v-.36a.48.48,0,0,0-.18-.35l-.1-.07a.06.06,0,0,1,0-.08l0,0a.77.77,0,0,0,.33-.44,1.38,1.38,0,0,0,0-.64.78.78,0,0,0-.57-.63,1.71,1.71,0,0,0-.55-.09H83.15c-.1,0-.14,0-.14.16v.36a.35.35,0,0,0,.08.26.38.38,0,0,1,.06.23v1.66a.55.55,0,0,1-.07.31.42.42,0,0,0-.07.27v.32a.13.13,0,0,0,.13.13h1.21l.08-.09h0c0-.21.06-.44-.1-.62h0a2,2,0,0,1,0-.6h.06c.06,0,.26.1.27.25a2.16,2.16,0,0,1,0,.36v.65c0,.12.06.17.18.17h1a.1.1,0,0,0,.08-.07A2.08,2.08,0,0,0,86,49.71Z"/><path class="cls-8" d="M84.72,47.87a.29.29,0,0,1-.32.23h0V48a.81.81,0,0,0,0-.22v-.3c0-.16.07-.16.21-.14a.22.22,0,0,1,.2.17A.86.86,0,0,1,84.72,47.87ZM86,49.71a.21.21,0,0,0,0-.11.54.54,0,0,1-.09-.35v-.36a.48.48,0,0,0-.18-.35l-.1-.07a.06.06,0,0,1,0-.08l0,0a.77.77,0,0,0,.33-.44,1.38,1.38,0,0,0,0-.64.78.78,0,0,0-.57-.63,1.71,1.71,0,0,0-.55-.09H83.15c-.1,0-.14,0-.14.16v.36a.35.35,0,0,0,.08.26.38.38,0,0,1,.06.23v1.66a.55.55,0,0,1-.07.31.42.42,0,0,0-.07.27v.32a.13.13,0,0,0,.13.13h1.21l.08-.09h0c0-.21.06-.44-.1-.62h0a2,2,0,0,1,0-.6h.06c.06,0,.26.1.27.25a2.16,2.16,0,0,1,0,.36v.65c0,.12.06.17.18.17h1a.1.1,0,0,0,.08-.07A2.08,2.08,0,0,0,86,49.71Z"/><path class="cls-4" d="M87.7,48.58h0a.11.11,0,0,1-.11-.13h0a4.58,4.58,0,0,1,.1-.63l.06-.05h0a5,5,0,0,0,.1.64C87.93,48.62,87.83,48.58,87.7,48.58Zm1.62,1.1a.11.11,0,0,0,0-.08A1.44,1.44,0,0,1,89.1,49c-.12-.64-.24-1.29-.37-1.93a.66.66,0,0,0-.07-.36.12.12,0,0,0-.12-.09H87.09a.12.12,0,0,0-.11.09v.24c-.14.73-.27,1.45-.4,2.18a1.23,1.23,0,0,1-.14.46.21.21,0,0,0,0,.11v.52c0,.17,0,.06.08.08h1.12V50a.66.66,0,0,0-.1-.43v-.07a.1.1,0,0,1,.08-.12H88a.1.1,0,0,1,.1.1.06.06,0,0,1,0,0l-.09.19a1.47,1.47,0,0,0,0,.59c.14.1.29,0,.43,0h.93A2.35,2.35,0,0,0,89.32,49.68Z"/><path class="cls-8" d="M87.7,48.58h0a.11.11,0,0,1-.11-.13h0a4.58,4.58,0,0,1,.1-.63l.06-.05h0a5,5,0,0,0,.1.64C87.93,48.62,87.83,48.58,87.7,48.58Zm1.62,1.1a.11.11,0,0,0,0-.08A1.44,1.44,0,0,1,89.1,49c-.12-.64-.24-1.29-.37-1.93a.66.66,0,0,0-.07-.36.12.12,0,0,0-.12-.09H87.09a.12.12,0,0,0-.11.09v.24c-.14.73-.27,1.45-.4,2.18a1.23,1.23,0,0,1-.14.46.21.21,0,0,0,0,.11v.52c0,.17,0,.06.08.08h1.12V50a.66.66,0,0,0-.1-.43v-.07a.1.1,0,0,1,.08-.12H88a.1.1,0,0,1,.1.1.06.06,0,0,1,0,0l-.09.19a1.47,1.47,0,0,0,0,.59c.14.1.29,0,.43,0h.93A2.35,2.35,0,0,0,89.32,49.68Z"/><path class="cls-4" d="M60.2,48.25a.24.24,0,0,1-.29.18h0s-.06-.05-.06-.09v-.4h0v-.45c0-.15,0-.07.08-.08a.27.27,0,0,1,.3.2A2.83,2.83,0,0,1,60.2,48.25Zm1.21-.73a1,1,0,0,0,0-.24.91.91,0,0,0-.64-.62,1.27,1.27,0,0,0-.47-.09H58.51v.16a.9.9,0,0,0,.11.62V49.2a.53.53,0,0,1-.09.3.38.38,0,0,0,0,.15v.44a.09.09,0,0,0,.1.1h1.21a.14.14,0,0,0,.11-.1v-.44a.38.38,0,0,0,0-.15c-.11-.3-.08-.34.25-.35h.2a1,1,0,0,0,.43-.06.81.81,0,0,0,.59-.56,1.31,1.31,0,0,0,0-.28C61.42,48.05,61.41,47.79,61.41,47.52Z"/><path class="cls-8" d="M60.2,48.25a.24.24,0,0,1-.29.18h0s-.06-.05-.06-.09v-.4h0v-.45c0-.15,0-.07.08-.08a.27.27,0,0,1,.3.2A2.83,2.83,0,0,1,60.2,48.25Zm1.21-.73a1,1,0,0,0,0-.24.91.91,0,0,0-.64-.62,1.27,1.27,0,0,0-.47-.09H58.51v.16a.9.9,0,0,0,.11.62V49.2a.53.53,0,0,1-.09.3.38.38,0,0,0,0,.15v.44a.09.09,0,0,0,.1.1h1.21a.14.14,0,0,0,.11-.1v-.44a.38.38,0,0,0,0-.15c-.11-.3-.08-.34.25-.35h.2a1,1,0,0,0,.43-.06.81.81,0,0,0,.59-.56,1.31,1.31,0,0,0,0-.28C61.42,48.05,61.41,47.79,61.41,47.52Z"/><path class="cls-9" d="M64,50.29h-.61a.11.11,0,0,1-.1-.1v-.4a.24.24,0,0,1,0-.12,1.8,1.8,0,0,0,.07-.83.1.1,0,0,0-.07-.09h-.2s-.12.06-.12.1a2.11,2.11,0,0,0,.07.79,1.32,1.32,0,0,1,0,.56.1.1,0,0,1-.07.09H61.82a.13.13,0,0,1-.13-.12v-.32a.43.43,0,0,1,.06-.27.55.55,0,0,0,.08-.31V47.62a.45.45,0,0,0,0-.23.8.8,0,0,1-.1-.5v-.16a.13.13,0,0,1,.13-.13H63a.13.13,0,0,1,.13.13,1.57,1.57,0,0,1-.07.68,1.1,1.1,0,0,0,0,.51s0,.08.07.08h.3a2,2,0,0,0,0-.6.7.7,0,0,1-.07-.43v-.24c0-.08,0-.06.08-.08h1.21a.13.13,0,0,1,.13.13V47a.48.48,0,0,1-.08.35.43.43,0,0,0-.06.27v1.61a.75.75,0,0,0,.09.39.61.61,0,0,1,0,.19v.32a.14.14,0,0,1-.12.16H64Z"/><path class="cls-9" d="M66.77,48.42v-.81a.48.48,0,0,0-.08-.31.09.09,0,0,1,0-.07,2.62,2.62,0,0,1,0-.56,0,0,0,0,1,0-.05h1.13a.09.09,0,0,0,0-.07l-.17-.11a.42.42,0,0,1-.14-.5.34.34,0,0,1,.15-.18.49.49,0,0,1,.67.19.58.58,0,0,1,0,.14.79.79,0,0,1-.12.54,1.22,1.22,0,0,1-.32.36.25.25,0,0,0-.11.24v2a3.23,3.23,0,0,1,0,.44.92.92,0,0,1-.71.7,2.22,2.22,0,0,1-1.2,0,1,1,0,0,1-.65-.55.67.67,0,0,1-.06-.28V47.73a.62.62,0,0,0-.1-.42.21.21,0,0,1,0-.11v-.53l0-.05h1.21c.12,0,.16,0,.16.18v.32a.38.38,0,0,1-.06.23.43.43,0,0,0-.08.27v1.77a.21.21,0,0,0,.26.16h0a.11.11,0,0,0,.11-.11,1.31,1.31,0,0,0,0-.28v-.74Z"/><path class="cls-9" d="M90.27,46.61c.75,0,.54-.13.82.54.11.28.22.55.32.83v0a2.67,2.67,0,0,0,0-.4.45.45,0,0,0,0-.23,1.72,1.72,0,0,1,0-.64v-.06h1a.11.11,0,0,1,.1.1v.4a.43.43,0,0,1,0,.16.62.62,0,0,0-.1.42v2.5a.11.11,0,0,1-.1.1h-.93a.15.15,0,0,1-.09-.06,3.18,3.18,0,0,1-.16-.32l-.45-1h-.07v.4a.46.46,0,0,0,.06.23.48.48,0,0,1,.07.31v.36a.12.12,0,0,1-.12.12h-.9a.1.1,0,0,1-.11-.09h0v-.32a.61.61,0,0,1,.07-.35.43.43,0,0,0,.06-.27V47.6a.52.52,0,0,0-.08-.3.38.38,0,0,1,0-.15V46.7a.1.1,0,0,1,.11-.09h.5Z"/><path class="cls-9" d="M72.2,46.6h.33c.29,0,.26,0,.37.26s.29.75.43,1.13h.06c.06,0,0,0,0-.05a1.73,1.73,0,0,0-.07-.75,1.75,1.75,0,0,1,0-.56.1.1,0,0,1,.06-.05h.92c.15,0,.18,0,.18.2v.28a.45.45,0,0,1,0,.23.56.56,0,0,0-.09.31v2.64l-.06.06h-.92a.17.17,0,0,1-.16-.12l-.48-1.1c0-.08-.07-.15-.1-.22h0v.48a.24.24,0,0,0,0,.12,1.13,1.13,0,0,1,.09.7.12.12,0,0,1-.12.12h-.9a.15.15,0,0,1-.13-.14v-.4a.33.33,0,0,1,.06-.19.46.46,0,0,0,.08-.3V47.58a.34.34,0,0,0,0-.24.46.46,0,0,1-.09-.34v-.28a.12.12,0,0,1,.12-.12h.47Z"/><path class="cls-9" d="M93,48.42v-.77a2.16,2.16,0,0,1,0-.36.85.85,0,0,1,.5-.59,1.05,1.05,0,0,1,.43-.11h.56a1.89,1.89,0,0,1,1.1.35.13.13,0,0,1,.08.13v.69a.12.12,0,0,1-.11.13h-.89c-.08,0-.11,0-.12-.13a1.27,1.27,0,0,1,0-.2.28.28,0,0,0-.18-.2.25.25,0,0,0-.21.21.67.67,0,0,0,0,.2v1.61a.2.2,0,0,0,.15.18.22.22,0,0,0,.23-.12.66.66,0,0,0,0-.44l-.05,0a.12.12,0,0,1-.09-.12v-.48a.11.11,0,0,1,.1-.1h1.06a.13.13,0,0,1,.12.13V49.9a.18.18,0,0,1-.1.16l-.29.14a3.1,3.1,0,0,1-1.48.12l-.23-.06a.83.83,0,0,1-.55-.6,2.24,2.24,0,0,1-.07-.51v-.73Z"/><path class="cls-9" d="M74.9,48.42V47.7a1.41,1.41,0,0,1,0-.29.86.86,0,0,1,.48-.69,1,1,0,0,1,.42-.13h.57a2.11,2.11,0,0,1,1.14.36.15.15,0,0,1,.06.09v.77s-.06.09-.11.09H76.6c-.07,0-.11,0-.12-.13v-.24a.09.09,0,0,0,0-.07.15.15,0,0,0-.21,0l0,0a.36.36,0,0,0-.11.16.67.67,0,0,0,0,.2v1.65a.23.23,0,0,0,.18.15c.08,0,.2-.08.2-.16V49.1a.09.09,0,0,0,0-.07.23.23,0,0,1-.12-.27V48.4a.11.11,0,0,1,.1-.1h1c.12,0,.17.05.17.17v1.45a.25.25,0,0,1-.17.25,2.55,2.55,0,0,1-.53.18,3,3,0,0,1-1.2,0,.91.91,0,0,1-.78-.77V49.1Z"/><path class="cls-10" d="M81.65,48.43v.8a.59.59,0,0,0,.06.32.46.46,0,0,1,.08.3v.33a.12.12,0,0,1-.12.12H80.48a.13.13,0,0,1-.13-.13v-.36a.33.33,0,0,1,.06-.19.5.5,0,0,0,.08-.27V47.54s0-.08-.07-.07-.07,0-.08.08a.84.84,0,0,0,0,.16v.41a.12.12,0,0,1-.11.1h-.56c-.12,0-.17,0-.17-.18V46.76a.14.14,0,0,1,.12-.16h3s.07,0,.08.08a.21.21,0,0,1,0,.11v1.26a.24.24,0,0,1,0,.12.1.1,0,0,1-.08.07,2.58,2.58,0,0,1-.68,0l-.06-.06v-.64a.08.08,0,0,0-.09-.06h0v.89Z"/><path class="cls-9" d="M70,49.08v.32a.18.18,0,0,1-.17.14.18.18,0,0,1-.19-.12.21.21,0,0,1,0-.11V47.78a1,1,0,0,1,0-.24.23.23,0,0,1,.16-.17.18.18,0,0,1,.24.11v.91C70.05,48.61,70,48.85,70,49.08Zm1-3.29a.39.39,0,0,0-.33.44.41.41,0,0,0,.17.27l.18.1v.1c0,.1-.1.13-.19.07a1.56,1.56,0,0,0-.56-.2,2.64,2.64,0,0,0-1.12,0,1.34,1.34,0,0,0-.3.12.79.79,0,0,0-.44.59V49a3.91,3.91,0,0,0,0,.48.86.86,0,0,0,.52.67,1.48,1.48,0,0,0,.27.1,3,3,0,0,0,1.2,0,1.17,1.17,0,0,0,.26-.1.75.75,0,0,0,.42-.47,1.34,1.34,0,0,0,.07-.39V47.56a3.18,3.18,0,0,0-.06-.43c.07-.15.22-.23.31-.37a.86.86,0,0,0,.16-.41.48.48,0,0,0-.33-.59.43.43,0,0,0-.35,0Z"/><path class="cls-9" d="M84.72,47.89a.3.3,0,0,1-.34.24h0V47.6c0-.16.07-.16.21-.14a.22.22,0,0,1,.2.17A.75.75,0,0,1,84.72,47.89ZM86,49.74a.21.21,0,0,0,0-.11.54.54,0,0,1-.09-.35v-.36a.48.48,0,0,0-.18-.35l-.1-.07a.06.06,0,0,1,0-.08l0,0A.77.77,0,0,0,86,48a1.38,1.38,0,0,0,0-.64.78.78,0,0,0-.57-.63,1.71,1.71,0,0,0-.55-.09H83.15c-.1,0-.14,0-.14.16v.36a.35.35,0,0,0,.08.26.38.38,0,0,1,.06.23v1.66a.55.55,0,0,1-.07.31.41.41,0,0,0-.07.26v.33a.13.13,0,0,0,.13.13h1.21l.08-.09h0c0-.22.06-.44-.1-.62h0a2,2,0,0,1,0-.6h.06c.06,0,.26.1.27.25a2.16,2.16,0,0,1,0,.36v.64c0,.13.06.18.18.18h1a.1.1,0,0,0,.08-.07A2,2,0,0,0,86,49.74Z"/><path class="cls-9" d="M87.7,48.61h0a.11.11,0,0,1-.11-.13h0a4.58,4.58,0,0,1,.1-.63l.06-.06c.06-.06,0,0,0,0a4.58,4.58,0,0,0,.1.63C87.93,48.62,87.83,48.61,87.7,48.61Zm1.62,1.1a.11.11,0,0,0,0-.08A1.44,1.44,0,0,1,89.1,49c-.12-.64-.24-1.29-.37-1.94a.65.65,0,0,0-.07-.35.12.12,0,0,0-.12-.09H87.09a.14.14,0,0,0-.11.1V47c-.14.72-.27,1.45-.4,2.18a1.23,1.23,0,0,1-.14.46.21.21,0,0,0,0,.11v.52c0,.17,0,.06.08.08h1.07a0,0,0,0,0,0,0V50a.66.66,0,0,0-.1-.43v-.07a.1.1,0,0,1,.08-.12H88a.1.1,0,0,1,.1.1.06.06,0,0,1,0,0,.9.9,0,0,0-.09.78c.14.1.29,0,.43,0h.93a0,0,0,0,0,0-.05A2.18,2.18,0,0,0,89.32,49.71Z"/><path class="cls-9" d="M60.2,48.28a.24.24,0,0,1-.29.18h0s-.06-.05-.06-.09V48h0v-.45c0-.15,0-.07.08-.08a.27.27,0,0,1,.3.2A2.83,2.83,0,0,1,60.2,48.28Zm1.21-.73a1,1,0,0,0,0-.24.89.89,0,0,0-.64-.62,1.27,1.27,0,0,0-.47-.09H58.57l-.06,0v.16a.9.9,0,0,0,.11.62v1.85a.53.53,0,0,1-.09.3.38.38,0,0,0,0,.15v.44a.11.11,0,0,0,.1.1h1.21a.14.14,0,0,0,.11-.1v-.44a.38.38,0,0,0,0-.15c-.11-.31-.08-.34.25-.35h.2a1.55,1.55,0,0,0,.43-.07.79.79,0,0,0,.59-.55,1.31,1.31,0,0,0,0-.28C61.42,48.08,61.41,47.81,61.41,47.55Z"/><path class="cls-11" d="M95.73,12.22H58.45v31.7H95.73Zm-.5.49V43.42H59V12.71Z"/><path class="cls-12" d="M65.83,15.19h28.3v-1.6H65.83Z"/><path class="cls-12" d="M65.83,17.71h28.3V16.12H65.83Z"/><path class="cls-12" d="M65.83,20h28.3V18.39H65.83Z"/><path class="cls-12" d="M65.83,22.46h28.3V20.87H65.83Z"/><path class="cls-12" d="M65.83,24.79h28.3V23.2H65.83Z"/><path class="cls-12" d="M65.83,27.22h28.3V25.63H65.83Z"/><path class="cls-12" d="M65.83,29.64h28.3V28H65.83Z"/><path class="cls-12" d="M65.83,32.06h28.3V30.47H65.83Z"/><path class="cls-12" d="M65.83,34.45h28.3V32.86H65.83Z"/><path class="cls-12" d="M65.83,36.92h28.3v-1.6H65.83Z"/><path class="cls-12" d="M60,15.17h4.26V13.58H60Z"/><path class="cls-12" d="M60,17.69h4.26V16.1H60Z"/><path class="cls-12" d="M60,20h4.26V18.4H60Z"/><path class="cls-12" d="M60,22.44h4.26V20.85H60Z"/><path class="cls-12" d="M60,24.77h4.26V23.18H60Z"/><path class="cls-12" d="M60,27.21h4.26v-1.6H60Z"/><path class="cls-12" d="M60,29.62h4.26V28H60Z"/><path class="cls-12" d="M60,32h4.26V30.45H60Z"/><path class="cls-12" d="M60,34.44h4.26v-1.6H60Z"/><path class="cls-12" d="M60,36.9h4.26V35.31H60Z"/><path class="cls-12" d="M60.05,39.85H94.12V38.26H60.05Z"/><path class="cls-12" d="M60.05,42.35H94.12V40.76H60.05Z"/><path class="cls-4" d="M77.84,20.68a8.38,8.38,0,0,1-.06,1.25.39.39,0,0,1-.18.31,1,1,0,0,1-.24.16,6.88,6.88,0,0,0-.91.61s-.09.06-.13,0a.75.75,0,0,1-.07-.12v-.05a.91.91,0,0,1,.18-.47l.18-.22a.22.22,0,0,0,0-.22.3.3,0,0,0-.22-.16h-.25a22.37,22.37,0,0,0-2.82.45c-.31.08-.61.18-.92.28a.36.36,0,0,0-.21.19,2,2,0,0,0-.1.26c-.37,1.06-.7,2.14-1,3.22a.39.39,0,0,1-.07.27c-.07.09.12.25.24.25h.14l.28-.07c.92-.26,1.86-.45,2.79-.64a2.54,2.54,0,0,1,.87,0,.24.24,0,0,1,.21.22A.78.78,0,0,1,75,27a2,2,0,0,1-.58.22l-.75.18a11.2,11.2,0,0,0-1.41.36,17,17,0,0,0-1.85.68.42.42,0,0,0-.26.26c-.08.18-.15.37-.22.56l-1.12,3.06v.08c-.12.34-.13.35.18.58a1.16,1.16,0,0,1,.4.62,2.11,2.11,0,0,1,0,1,3,3,0,0,1-.63,1.29,1.69,1.69,0,0,1-.42.38,1.64,1.64,0,0,1-1.71,0,.66.66,0,0,1-.39-.77.51.51,0,0,1,.07-.31c.54-1.76,1.07-3.53,1.67-5.27v-.13a.26.26,0,0,0-.07-.22l-.15-.11a.39.39,0,0,1-.15-.33V29A3.9,3.9,0,0,1,68,28a.49.49,0,0,1,.22-.18.88.88,0,0,0,.35-.15.47.47,0,0,0,.28-.3c.09-.3.19-.59.28-.89l.75-2.29a1.58,1.58,0,0,0,.09-.31.33.33,0,0,0-.06-.27.15.15,0,0,0-.11-.08.49.49,0,0,0-.24,0c-.13.06-.25.14-.37.21l-1,.56h-.11s0,0,0-.05a12.82,12.82,0,0,1,.08-1.75,7,7,0,0,1,.13-.92,2.33,2.33,0,0,1,.08-.36,1.21,1.21,0,0,1,.54-.75,3.43,3.43,0,0,1,.49-.28,15.85,15.85,0,0,1,2-.71,11.2,11.2,0,0,1,1.28-.27c.7-.12,1.4-.24,2.1-.34a8.58,8.58,0,0,1,.87-.1,6,6,0,0,1,1.74.15.85.85,0,0,1,.22.09.35.35,0,0,1,.15.17,1.43,1.43,0,0,1,.09.5Z"/><path class="cls-2" d="M75.33,23.26v.08a1.05,1.05,0,0,0,.23.36,1,1,0,0,0,1.06.29,1,1,0,0,0,.36-.17h0c.22-.16.44-.31.67-.45l.12-.07.19-.12.14-.1a1.39,1.39,0,0,0,.58-1V19.66a2.39,2.39,0,0,0-.15-.83,1.28,1.28,0,0,0-.63-.72,1.37,1.37,0,0,0-.38-.15h-.08a7.07,7.07,0,0,0-2-.17H74.5L74,18l-.59.09-.37.06-.36.07-.58.1h-.25l-.21.05h-.52a15.08,15.08,0,0,0-2.07.76,4.59,4.59,0,0,0-.49.26l-.16.1a2.14,2.14,0,0,0-.94,1.3V21l-.06.22a4.92,4.92,0,0,1-.1.57v2.51h0a1.06,1.06,0,0,0,1.2.9l.21,0h0l-.48,1.45v.15l-.13.06h0a1.37,1.37,0,0,0-.69.63,5.09,5.09,0,0,0-.48,1.3v.36a1.41,1.41,0,0,0,.24.72h0l-.15.46-.2.61-.27.85-.25.78-.68,2.24a3.69,3.69,0,0,0-.11.45A1.66,1.66,0,0,0,66.45,37a2.62,2.62,0,0,0,2.66-.11,2.36,2.36,0,0,0,.65-.57,4,4,0,0,0,.84-1.69,3,3,0,0,0,0-1.53V33a2.13,2.13,0,0,0-.41-.77v-.06L71.35,29l.19-.08c.49-.19.94-.36,1.38-.49l.26-.08.25-.07.68-.16h.28l.18-.05L75,28h0a3.19,3.19,0,0,0,.84-.33,1.76,1.76,0,0,0,1-1.67,1.23,1.23,0,0,0-1.4-.95,3.61,3.61,0,0,0-1.18.07l-.92.18-.49.11-.26.06-.23,0,.33-1,.16-.47.1-.3.09-.25.27-.09h.46l.19-.05h1.31Zm-8,12.23L68,33.24h0a1.43,1.43,0,0,0,.28.32h0l.1.08v.08a1.06,1.06,0,0,1,0,.56,2,2,0,0,1-.42.89,1.12,1.12,0,0,1-.2.18h0a.58.58,0,0,1-.48.06Zm1.88-7h0l-.29.76V29.2a1.07,1.07,0,0,0-.15-.22h0v-.06a.77.77,0,0,1,.07-.16v-.07L69,28.6h0Zm.93-1.61h0a1.69,1.69,0,0,0,.23.36H70.3l-.21.09H70l-.13.07h0l.1-.32Zm6.71-7.12h0v1.09h0a2,2,0,0,0-.74-.06l-.65.07h-.23L75,21H73.16l-.19.05h-.25l-.18.06-.37.12a1.37,1.37,0,0,0-.81.72c0,.08-.07.16-.1.25l-.06.16a1.33,1.33,0,0,1-.14.41L71,23h0c0-.08-.08-.16-.13-.24a1.12,1.12,0,0,0-.84-.53h-.25a1.52,1.52,0,0,0-.47.1h-.07v-.51l.07-.25v-.2s0-.06.11-.11l.1-.07h0l.08-.05.13-.06a14.47,14.47,0,0,1,1.7-.64l.17-.05h.36l.26,0h.23l.63-.11.36-.06.57-.09.59-.1h1a5.46,5.46,0,0,1,1.21-.2Z"/><path class="cls-4" d="M84.84,19.35h-.63a4.69,4.69,0,0,0-1.29.2,6.5,6.5,0,0,0-1.41.6l-1.12.65-.23.17a.18.18,0,0,0,0,.25.5.5,0,0,0,.27.18,2,2,0,0,1,.65.31.86.86,0,0,1,.14.13h0a.05.05,0,0,1-.06.05.76.76,0,0,1-.42-.09,1.53,1.53,0,0,0-.52-.08h-.63a.76.76,0,0,1-.42-.09.25.25,0,0,1-.12-.13,1.31,1.31,0,0,1,0-.28v-.6l.06-.55c0-.4.07-.8.11-1.2a1.32,1.32,0,0,1,.55-.94A7.76,7.76,0,0,1,83,16.58a14.5,14.5,0,0,1,2.46-.21,6.4,6.4,0,0,1,1.31.13,1.14,1.14,0,0,1,.94.89l.36,1.53a1.61,1.61,0,0,1,0,.69,3.88,3.88,0,0,1-.3.93c-.73,1.56-1.41,3.14-2.1,4.73s-1.34,3.07-2,4.61c0,.12-.11.25-.16.38a1.22,1.22,0,0,0-.06.6.46.46,0,0,0,.52.41H84a.72.72,0,0,0,.35-.14l.61-.46.21-.11h0a2.73,2.73,0,0,1-.32.72,6.18,6.18,0,0,1-.64.88c-.27.32-.57.63-.86.94a3.38,3.38,0,0,1-.63.5,1.28,1.28,0,0,1-.74.19.9.9,0,0,1-.76-.43,1.06,1.06,0,0,1-.19-.52,2.55,2.55,0,0,1,0-.78,4.87,4.87,0,0,1,.28-.84c.89-2.25,1.81-4.48,2.74-6.72.62-1.47,1.23-3,1.85-4.43.07-.17.13-.34.2-.52s0-.19-.13-.22a1,1,0,0,0-.34-.05H84.8Z"/><path class="cls-2" d="M85.42,15.38a16.58,16.58,0,0,0-2.63.23,9,9,0,0,0-3.6,1.56,2.34,2.34,0,0,0-.93,1.56v.12l-.13,1.3v1.07a1.86,1.86,0,0,0,.08.62,1.22,1.22,0,0,0,.61.71,1.89,1.89,0,0,0,.84.2h.67a.43.43,0,0,1,.16,0h.32a1.32,1.32,0,0,0,.56,0,1,1,0,0,0,.94-1.09h0a.49.49,0,0,0,0-.17,1.11,1.11,0,0,0-.21-.42L82,21h0a5,5,0,0,1,1.19-.5,3.55,3.55,0,0,1,.91-.16h.7l-1.89,4.54-.44,1.06-.57,1.37-.41,1-.26.66-.39,1-.26.63-.16.42-.07.18-.06.17a4.64,4.64,0,0,0-.16.53,3,3,0,0,0,0,1.12,2.15,2.15,0,0,0,.35.95,1.91,1.91,0,0,0,1.53.87,2.31,2.31,0,0,0,1.28-.33,3.75,3.75,0,0,0,.86-.67l.15-.17.15-.15.19-.21.12-.13.12-.13.11-.13v-.06a6,6,0,0,0,.74-1,3.06,3.06,0,0,0,.43-1,1,1,0,0,0-.33-1h0a1,1,0,0,0-1-.17h0l1.55-3.52,1.12-2.6.26-.57.33-.75.32-.69.24-.53A5.17,5.17,0,0,0,89,19.88a2.6,2.6,0,0,0,0-1.11l-.12-.55-.24-1A2.14,2.14,0,0,0,87,15.55h-.08A6.33,6.33,0,0,0,85.42,15.38Zm-3,15.85h0A1.36,1.36,0,0,0,83,32h.06l-.17.19-.22.23a2.59,2.59,0,0,1-.42.32h0l-.14,0h0a.17.17,0,0,1,0-.1,1.09,1.09,0,0,1,0-.44V32h0v-.24l.06-.15Zm3-13.88a5.56,5.56,0,0,1,1,.1h.11c.13,0,.15,0,.17.13l.2.83.12.48V19h0a1.21,1.21,0,0,0-.62-.56,1.9,1.9,0,0,0-.74-.13l-1.49.06h0a5.6,5.6,0,0,0-1.57.25,7.46,7.46,0,0,0-1.52.62l-.66.39-.32.18.08-.8a.29.29,0,0,1,.14-.25,6.66,6.66,0,0,1,2.79-1.22,15.43,15.43,0,0,1,2.35-.21Z"/><path class="cls-4" d="M72.67,32a2,2,0,0,1,.22-.87,23.67,23.67,0,0,1,1.19-2.22c.23-.34.44-.68.67-1a.73.73,0,0,1,.93-.27A.39.39,0,0,1,76,28a.75.75,0,0,1-.1.36l-.14.24c-.43.71-.81,1.44-1.19,2.17a3.7,3.7,0,0,0-.3.78,1.34,1.34,0,0,0,0,.69.54.54,0,0,0,.68.35l.1,0a1.14,1.14,0,0,0,.48-.39,7.78,7.78,0,0,0,.61-.89l1.56-2.82c.1-.17.2-.35.31-.52a3.37,3.37,0,0,1,.29-.37.44.44,0,0,1,.14-.13.4.4,0,0,1,.41-.05.38.38,0,0,1,.22.34A1.28,1.28,0,0,1,79,28a1.19,1.19,0,0,1-.14.4l-.45,1-.61,1.4a2.91,2.91,0,0,0-.27,1,1,1,0,0,0,.14.62,1.29,1.29,0,0,0,.16.17.38.38,0,0,0,.32.08,2.5,2.5,0,0,0,1-.51c.42-.34.85-.67,1.28-1a.08.08,0,0,1,.09,0,.11.11,0,0,1,0,.08.89.89,0,0,1,0,.23,1.56,1.56,0,0,1-.32.61,18.69,18.69,0,0,1-1.38,1.44,4.42,4.42,0,0,1-1.15.76.92.92,0,0,1-.32.1.41.41,0,0,1-.42-.18.77.77,0,0,1-.17-.38,3.14,3.14,0,0,1,0-1.06,1.71,1.71,0,0,0,0-.32.34.34,0,0,0-.09-.25.22.22,0,0,0-.31,0l0,0a1.56,1.56,0,0,0-.16.28l-.32.83a2.58,2.58,0,0,1-.38.69,1.19,1.19,0,0,1-1.07.43h-.28A1.44,1.44,0,0,1,73.3,34,2.74,2.74,0,0,1,72.67,32Z"/><path class="cls-2" d="M77.86,26.63a1.14,1.14,0,0,0-.31.27l-.09.1-.09.11-.08.09-.06.09-.06.08v.09l-.08.11v.06l-.09.16v-.06a1.4,1.4,0,0,0-.9-1,1.72,1.72,0,0,0-2.08.64l-.1.15-.47.73-.17.27-.11.17-.07.11-.07.12-.1.18-.07.12-.07.14-.12.22-.17.35-.38.76h0A2.94,2.94,0,0,0,71.69,32a3.62,3.62,0,0,0,.94,2.57,2.4,2.4,0,0,0,1.28.75h.57a2.17,2.17,0,0,0,1.67-.63h0v.05a1.44,1.44,0,0,0,1.29.54,1.65,1.65,0,0,0,.62-.18,5.31,5.31,0,0,0,1.41-.93l.1-.09.1-.09.14-.14.1-.1.1-.1.1-.1.17-.18.12-.13.26-.29.26-.29a2.44,2.44,0,0,0,.54-1,1.82,1.82,0,0,0,0-.33v-.17A1.06,1.06,0,0,0,81,30.3a1.08,1.08,0,0,0-1.13.11l-.7.54-.29.23-.21.17V31.2l.13-.3.48-1.06c.16-.35.31-.7.45-1a5.27,5.27,0,0,0,.19-.51,1.88,1.88,0,0,0,.06-.58,1.35,1.35,0,0,0-.7-1.15h-.06A1.37,1.37,0,0,0,77.86,26.63Z"/><path class="cls-4" d="M90,27.09a5.2,5.2,0,0,1-.21.55q-.27.57-.57,1.14a6.33,6.33,0,0,1-.39.61,1.61,1.61,0,0,1-.24.28.77.77,0,0,1-.52.2.43.43,0,0,1-.39-.18.83.83,0,0,1-.19-.64,2.84,2.84,0,0,1,.37-1.13,7.5,7.5,0,0,1,.62-.86,5.76,5.76,0,0,1,.59-.62,1.33,1.33,0,0,1,.41-.25l.22-.05a.35.35,0,0,1,.38.28v.11A2.1,2.1,0,0,1,90,27.09Zm3.62,1.54a5.09,5.09,0,0,1-1.12.95,2.34,2.34,0,0,1-.71.3,1.31,1.31,0,0,1-.28,0A.63.63,0,0,1,91,29.6a.89.89,0,0,1-.11-.31,1.72,1.72,0,0,1,.06-.64,5.65,5.65,0,0,1,.24-.8c.17-.5.36-1,.54-1.48.07-.19.13-.38.19-.57A1.88,1.88,0,0,0,92,25a1,1,0,0,0-.23-.55,1,1,0,0,0-.56-.35,1.54,1.54,0,0,0-.9.09,5.5,5.5,0,0,0-1.2.69,13.29,13.29,0,0,0-1.64,1.45,6.09,6.09,0,0,0-.68.84,4.48,4.48,0,0,0-.7,1.56,2.84,2.84,0,0,0,.19,1.86,2.18,2.18,0,0,0,1.22,1.13,1.35,1.35,0,0,0,1.64-.51,2.74,2.74,0,0,0,.21-.42c.08-.2.14-.41.21-.61s.07-.24.11-.36a.8.8,0,0,1,.18-.27.27.27,0,0,1,.38,0,.18.18,0,0,1,.05.07.54.54,0,0,1,0,.18,1.22,1.22,0,0,1,0,.27,2,2,0,0,0,.08,1.14.43.43,0,0,0,.51.33,1.56,1.56,0,0,0,.7-.19,3.5,3.5,0,0,0,1-.79,11,11,0,0,0,1-1.39,1.38,1.38,0,0,0,.23-.51c0-.06,0-.09-.12-.07Z"/><path class="cls-2" d="M89.91,23.34a2.42,2.42,0,0,1,1.48-.14,1.9,1.9,0,0,1,1.12.69A2,2,0,0,1,93,25a2.82,2.82,0,0,1-.09,1.08v.14l-.15.44-.17.48-.3.82-.1.28c0,.13-.09.26-.13.39v.16h0a3.89,3.89,0,0,0,.71-.56l.1-.1L93,28l.21-.24.31-.07a1,1,0,0,1,1,.21,1,1,0,0,1,.35,1V29a2.11,2.11,0,0,1-.22.54v.08l-.07.13a11.72,11.72,0,0,1-1,1.52,4,4,0,0,1-1.3,1,2.53,2.53,0,0,1-1.11.31A1.47,1.47,0,0,1,90,32.2l0-.05h0a2.35,2.35,0,0,1-2.44.59h-.14a3.14,3.14,0,0,1-1.73-1.63,3.85,3.85,0,0,1-.25-2.48,5.26,5.26,0,0,1,.85-1.92,6.46,6.46,0,0,1,.78-.95,13.73,13.73,0,0,1,1.76-1.56,7.71,7.71,0,0,1,1.27-.75Zm-2.14,7.5h.08a.48.48,0,0,0,.29,0h0A1.15,1.15,0,0,1,87.77,30.84Zm3.16-5.72a.66.66,0,0,0-.28,0l-.3.14a1.36,1.36,0,0,1,.52.49l.09-.27a.81.81,0,0,0,0-.38h0Z"/><path class="cls-9" d="M77.83,20.68a8.38,8.38,0,0,1-.06,1.25.39.39,0,0,1-.18.31,1.88,1.88,0,0,1-.23.16,7,7,0,0,0-.92.61.09.09,0,0,1-.13,0h0l-.06-.12m0-.05a.9.9,0,0,1,.17-.47l.18-.22a.22.22,0,0,0,0-.22.27.27,0,0,0-.22-.16h-.24a22.52,22.52,0,0,0-2.83.45c-.31.08-.61.18-.92.28a.36.36,0,0,0-.21.19c0,.08-.07.17-.1.26-.37,1.06-.7,2.14-1,3.22a2.68,2.68,0,0,0-.07.27.27.27,0,0,0,.23.25h.15l.28-.07c.91-.26,1.85-.45,2.78-.64a3.17,3.17,0,0,1,.87,0,.22.22,0,0,1,.21.22.79.79,0,0,1-.45.76,2,2,0,0,1-.59.22l-.75.18q-.72.15-1.41.36a17,17,0,0,0-1.85.68.42.42,0,0,0-.26.26c-.08.18-.14.37-.21.56l-1.13,3.06v.08c-.12.34-.13.35.18.58a1.09,1.09,0,0,1,.4.62,2.11,2.11,0,0,1,0,1,2.84,2.84,0,0,1-.63,1.29,1.69,1.69,0,0,1-.42.38,1.63,1.63,0,0,1-1.7,0,.65.65,0,0,1-.4-.77.51.51,0,0,1,.07-.31c.54-1.76,1.07-3.53,1.67-5.27v-.13a.26.26,0,0,0-.07-.22l-.15-.11a.41.41,0,0,1-.15-.33V29a3.92,3.92,0,0,1,.39-1,.41.41,0,0,1,.21-.18,2.17,2.17,0,0,0,.35-.15.44.44,0,0,0,.28-.3c.09-.3.19-.59.28-.89L70,24.19a1.77,1.77,0,0,1,.08-.31.33.33,0,0,0-.06-.27.15.15,0,0,0-.11-.08.45.45,0,0,0-.23,0c-.14.06-.25.14-.38.21l-1,.56h-.11v-.05a14.64,14.64,0,0,1,.08-1.75,7,7,0,0,1,.13-.92l.09-.36a1.16,1.16,0,0,1,.53-.75,3.53,3.53,0,0,1,.5-.28,15,15,0,0,1,1.94-.71,11.2,11.2,0,0,1,1.28-.27c.7-.12,1.4-.24,2.11-.34a8.08,8.08,0,0,1,.86-.1,6,6,0,0,1,1.74.15.85.85,0,0,1,.22.09.37.37,0,0,1,.16.17,1.42,1.42,0,0,1,.08.5Z"/><path class="cls-13" d="M75.61,18.46h-.8l-.51.08-.59.09-.38.06-.54.1-.47.08L72,19h-.51l-.18.05a16,16,0,0,0-2,.73,2.9,2.9,0,0,0-.54.31,1.41,1.41,0,0,0-.66.93v.35a2.62,2.62,0,0,0-.09.56V24.2h0a.36.36,0,0,0,.43.3.28.28,0,0,0,.12,0l1-.56h0l.14-.08h.06a2.45,2.45,0,0,1-.08.29L68.7,27l-.08.27a.18.18,0,0,1-.12.12l-.35.15a.7.7,0,0,0-.36.32A4.2,4.2,0,0,0,67.38,29v.15a.67.67,0,0,0,.26.56l.1.07h0l-.16.46-.21.63-.2.61-.25.79-.45,1.49L66,35.12c0,.12-.06.24-.08.36a1,1,0,0,0,.56,1.08,1.92,1.92,0,0,0,2-.07,2.27,2.27,0,0,0,.49-.44,3.41,3.41,0,0,0,.69-1.4,2.22,2.22,0,0,0,0-1.2,1.32,1.32,0,0,0-.5-.78l-.13-.1v-.15h0v-.07l1.28-3.48v-.13a.17.17,0,0,1,.1-.1,15.51,15.51,0,0,1,2-.64c.48-.15.88-.25,1.26-.33H74l.53-.13a2.64,2.64,0,0,0,.66-.25,1.1,1.1,0,0,0,.61-1,.53.53,0,0,0-.48-.49,3,3,0,0,0-.85,0l-.32.07-.78.16-.45.09-.24.06-.23.05-.28.07-.2.05-.2,0-.3.09h-.18v-.06l.52-1.65.22-.67.11-.35a1.47,1.47,0,0,1,.14-.4l.07-.21a.58.58,0,0,1,.09-.23h0l.48-.15.19-.06h1.32l.26-.05h.48l.45-.06h.6l-.08.08h0a1.07,1.07,0,0,0-.23.56v.08A.37.37,0,0,0,76,23v.06a1,1,0,0,0,.1.17.37.37,0,0,0,.37.1.51.51,0,0,0,.16-.09c.24-.18.5-.35.76-.51l.15-.08h.06l.13-.09a.68.68,0,0,0,.29-.49V22l.07-1.24v-1a1.73,1.73,0,0,0-.11-.6.59.59,0,0,0-.29-.33l-.25-.11h0A6.29,6.29,0,0,0,75.61,18.46ZM68,29.15h0a3.63,3.63,0,0,1,.36-1h.17L68.7,28h0a.75.75,0,0,0,.44-.48l.14-.42.9-2.76a1.53,1.53,0,0,1,.09-.34.61.61,0,0,0-.1-.49.42.42,0,0,0-.33-.21.62.62,0,0,0-.38,0h-.13l-.23.13-.7.39V22.05a.93.93,0,0,1,.06-.43l.07-.25V21.2a.8.8,0,0,1,.4-.56l.12-.08.33-.18a16.16,16.16,0,0,1,1.91-.7h.8l.45-.08.36-.06.55-.09.57-.1.62-.09h.85a5.4,5.4,0,0,1,1.5.11h.26a1.32,1.32,0,0,1,.08.33v1.09l-.06,1v.32l-.13.09-.07.05h0l-.13.07-.18.11-.1.06v0a.51.51,0,0,0,0-.53.53.53,0,0,0-.46-.31,1.5,1.5,0,0,0-.3,0l-.52.06-.34.05H73.28l-.28.06h-.31L72.1,22a.64.64,0,0,0-.38.34c0,.09-.08.18-.12.29l-.16.47-.14.42-.18.57-.57,1.77c0,.1,0,.2-.07.3a.54.54,0,0,0,.46.6h.47l.37-.1.2-.06.28-.07.22,0,.32-.07.37-.08.76-.16.34-.07h.1a2.81,2.81,0,0,1,.58,0h0a.5.5,0,0,1-.3.41,1.81,1.81,0,0,1-.5.2l-.53.12h-.21c-.33.06-.65.14-1,.24l-.29.08H72c-.6.18-1.21.41-1.89.69a.8.8,0,0,0-.42.43l-.08.21-1.26,3.42h0V32c-.09.26-.1.35,0,.52a.69.69,0,0,0,.11.13v.05h.06l.08.06a.76.76,0,0,1,.29.45,1.76,1.76,0,0,1,0,.91,2.84,2.84,0,0,1-.57,1.17,1.83,1.83,0,0,1-.36.32,1.37,1.37,0,0,1-1.41,0,.38.38,0,0,1-.24-.46,2.86,2.86,0,0,1,.07-.28l.67-2.2.27-.85.2-.65.22-.67.11-.32.19-.56a.61.61,0,0,0,0-.19.52.52,0,0,0-.15-.47l-.1-.08.23.39Z"/><path class="cls-9" d="M84.83,19.35H84.2a4.69,4.69,0,0,0-1.29.2,6.5,6.5,0,0,0-1.41.6l-1.12.65-.23.17a.18.18,0,0,0,0,.25.53.53,0,0,0,.28.18,1.9,1.9,0,0,1,.64.31.86.86,0,0,1,.14.13h0v.05a.8.8,0,0,1-.43-.09,1.53,1.53,0,0,0-.52-.08h-.63a.76.76,0,0,1-.42-.09.25.25,0,0,1-.12-.13,1.31,1.31,0,0,1,0-.28v-.6l.06-.55a9.75,9.75,0,0,1,.12-1.2,1.28,1.28,0,0,1,.54-.94A7.66,7.66,0,0,1,83,16.58a14.62,14.62,0,0,1,2.47-.21,6.3,6.3,0,0,1,1.3.13,1.14,1.14,0,0,1,.94.89c.12.51.25,1,.36,1.53a1.35,1.35,0,0,1,0,.69,3.88,3.88,0,0,1-.3.93c-.73,1.56-1.41,3.14-2.09,4.73s-1.35,3.07-2,4.61a2.54,2.54,0,0,0-.16.38,1.23,1.23,0,0,0-.07.6.46.46,0,0,0,.52.41H84a.64.64,0,0,0,.35-.14l.62-.46.2-.11h0a2.59,2.59,0,0,1-.32.72,7.82,7.82,0,0,1-.63.88c-.28.32-.57.63-.87.94a3.38,3.38,0,0,1-.63.5,1.28,1.28,0,0,1-.74.19.94.94,0,0,1-.76-.43,1.21,1.21,0,0,1-.19-.52,2.55,2.55,0,0,1,0-.78,4.87,4.87,0,0,1,.28-.84c.89-2.25,1.81-4.48,2.74-6.72C84.7,23,85.33,21.58,86,20.1c.07-.17.14-.34.2-.52s0-.19-.13-.22a1,1,0,0,0-.33-.05h-.88Z"/><path class="cls-13" d="M85.43,16.66a5.18,5.18,0,0,1,1.24.14.81.81,0,0,1,.71.66l.22.9.13.55V19a1.32,1.32,0,0,1,0,.56,3.21,3.21,0,0,1-.28.86l-.18.39-.28.62-.18.41-.32.71-.69,1.58-1.19,2.73-1.35,3.08-.05.12v.07h0a1.37,1.37,0,0,0-.08.72.76.76,0,0,0,.83.69l.1,0h.07a1.18,1.18,0,0,0,.41-.19h0A5,5,0,0,1,84,32l-.1.12-.16.18-.17.19-.2.21-.22.23a2.46,2.46,0,0,1-.57.45,1,1,0,0,1-.57.16.63.63,0,0,1-.53-.3.93.93,0,0,1-.15-.39,1.94,1.94,0,0,1,0-.68V32l.06-.18v-.13l.06-.14.06-.17.38-.95.39-1,.4-1,.27-.67.56-1.37L84.1,25l2-4.85v-.25l.09-.22a.5.5,0,0,0-.3-.6,1.16,1.16,0,0,0-.45-.08h-1.5a4.9,4.9,0,0,0-1.37.22,6.07,6.07,0,0,0-1.37.56l-.55.32-.65.37h0l-.18.13-.09.07a.48.48,0,0,0,0,.67h-.41a.74.74,0,0,1-.21,0h0V20.14L79.52,19h0a1,1,0,0,1,.43-.73,7.39,7.39,0,0,1,3-1.4A14.16,14.16,0,0,1,85.43,16.66Zm-3.92,5.23h0a.29.29,0,0,0-.07-.18v-.05a.67.67,0,0,0-.15-.14,2.64,2.64,0,0,0-.74-.35h0l.41-.24.62-.36.11-.07A5.34,5.34,0,0,1,83,19.86a4,4,0,0,1,1.09-.19h1.75l-.06.18-.06.13L83.4,25.5,83,26.55l-.28.69-.41,1-.4,1-.39,1-.38,1-.07.18-.06.16v.14a1.82,1.82,0,0,1-.11.4,2.22,2.22,0,0,0,0,.89,1.38,1.38,0,0,0,.23.65,1.26,1.26,0,0,0,1,.56,1.67,1.67,0,0,0,.9-.24,3.09,3.09,0,0,0,.7-.55l.29-.31.19-.21.18-.19.1-.12.11-.12a5.55,5.55,0,0,0,.67-.92,2.65,2.65,0,0,0,.35-.81.33.33,0,0,0-.11-.32.35.35,0,0,0-.34-.06h0l-.11.06h-.12l-.25.19-.37.27a.5.5,0,0,1-.23.09.17.17,0,0,1-.22-.1s0,0,0,0a.9.9,0,0,1,0-.46v-.17l1.92-4.37,1-2.43.43-1,.34-.75.18-.4.1-.22L88,20.6a3.89,3.89,0,0,0,.32-1,1.84,1.84,0,0,0,0-.81l-.15-.64-.21-.9a1.42,1.42,0,0,0-1.17-1.11A6.31,6.31,0,0,0,85.43,16a15.11,15.11,0,0,0-2.51.22,8.19,8.19,0,0,0-3.31,1.44,1.59,1.59,0,0,0-.67,1.15l-.12,1.28v1.09a1,1,0,0,0,.05.38.61.61,0,0,0,.26.31,1.31,1.31,0,0,0,.48.12h.71a1.2,1.2,0,0,1,.42.07,1.2,1.2,0,0,0,.56.11A.33.33,0,0,0,81.51,21.89Z"/><path class="cls-9" d="M72.67,32a2,2,0,0,1,.21-.87,23.76,23.76,0,0,1,1.2-2.22c.22-.34.43-.68.66-1a.73.73,0,0,1,.93-.27.39.39,0,0,1,.27.39.65.65,0,0,1-.1.36c0,.08-.09.16-.13.24-.43.71-.81,1.44-1.2,2.17a3.7,3.7,0,0,0-.3.78,1.34,1.34,0,0,0,0,.69.53.53,0,0,0,.66.36l.11-.05a1.14,1.14,0,0,0,.48-.39,7.78,7.78,0,0,0,.61-.89l1.56-2.82c.1-.17.2-.35.31-.52a3.19,3.19,0,0,1,.29-.37.86.86,0,0,1,.14-.13.4.4,0,0,1,.41-.05.38.38,0,0,1,.22.34A1,1,0,0,1,79,28a1.19,1.19,0,0,1-.14.4l-.45,1-.61,1.36a2.91,2.91,0,0,0-.27,1,1,1,0,0,0,.14.62,1.29,1.29,0,0,0,.16.17.38.38,0,0,0,.32.08,2.64,2.64,0,0,0,1-.51c.41-.34.84-.67,1.27-1a.08.08,0,0,1,.09,0,.11.11,0,0,1,0,.08.89.89,0,0,1,0,.23,1.56,1.56,0,0,1-.32.61,18.69,18.69,0,0,1-1.38,1.44,4.42,4.42,0,0,1-1.15.76.92.92,0,0,1-.32.1.46.46,0,0,1-.42-.18.68.68,0,0,1-.16-.38,3.14,3.14,0,0,1,0-1.06.86.86,0,0,0,0-.32.29.29,0,0,0-.09-.25.22.22,0,0,0-.31,0l0,0a1.56,1.56,0,0,0-.16.28c-.11.28-.21.55-.31.83a2.61,2.61,0,0,1-.39.69,1.17,1.17,0,0,1-1.06.43h-.29a1.44,1.44,0,0,1-.82-.46A2.68,2.68,0,0,1,72.67,32Z"/><path class="cls-13" d="M78.23,27.21a1,1,0,0,0-.21.19l-.15.18h0l-.06.07h0l0,.07v.07L77.6,28l-.08.13-.13.23L76,30.86l-.19.34v.08l0,.09-.06.08-.06.09-.07.1-.08.11-.2.27a1,1,0,0,1-.35.29.27.27,0,0,1-.38-.13,1,1,0,0,1,0-.53,2.72,2.72,0,0,1,.23-.62l.14-.26.29-.56.25-.46.14-.26.17-.3L76,28.9l.08-.13.09-.17v-.05a.89.89,0,0,0,.15-.5.69.69,0,0,0-.47-.69,1,1,0,0,0-1.28.38l-.11.18-.49.75-.13.21-.1.15-.07.11-.06.11-.07.11-.06.12-.11.2-.11.21-.16.33-.33.66a.61.61,0,0,0-.07.14,2.18,2.18,0,0,0-.25,1,2.91,2.91,0,0,0,.76,2.1,1.74,1.74,0,0,0,.91.54l.26.05h.13a1.47,1.47,0,0,0,1.33-.54,2.74,2.74,0,0,0,.42-.77l.24-.62.07-.2h0v.14a2.06,2.06,0,0,0,0,.7v.46a.94.94,0,0,0,.23.53.74.74,0,0,0,.68.28,1.21,1.21,0,0,0,.41-.12,4.6,4.6,0,0,0,1.23-.81l.1-.09.14-.13.13-.13.14-.15.15-.15.17-.18.18-.2.39-.43a1.89,1.89,0,0,0,.39-.74.89.89,0,0,0,0-.23v-.07a.38.38,0,0,0-.2-.34.41.41,0,0,0-.4,0l-.77.59-.29.23L79,32a2.43,2.43,0,0,1-.91.45H78a.52.52,0,0,1-.1-.11.66.66,0,0,1-.1-.43,3.37,3.37,0,0,1,.25-.93l.61-1.36.45-1a3.16,3.16,0,0,0,.16-.43,1.09,1.09,0,0,0,0-.36.76.76,0,0,0-1.07-.62Zm.44.47a.06.06,0,0,1,0,.08.54.54,0,0,1,0,.18,1.32,1.32,0,0,1-.13.36l-.33.76-.26.57-.41.93-.06.12a3.44,3.44,0,0,0-.3,1.13,1.2,1.2,0,0,0,.2.8,1,1,0,0,0,.22.24.62.62,0,0,0,.57.13,2.83,2.83,0,0,0,1.14-.56l.19-.15.23-.18.26-.21h0l-.39.43-.17.19-.16.17-.14.16L79,33l-.09.09-.09.08-.13.12h0a3.92,3.92,0,0,1-1.08.72.62.62,0,0,1-.23.07.17.17,0,0,1-.16-.06.43.43,0,0,1-.1-.24V33.4a2.17,2.17,0,0,1,0-.51h0a2.29,2.29,0,0,0,0-.37.64.64,0,0,0-.17-.47.51.51,0,0,0-.72-.08.3.3,0,0,0-.08.08,1.63,1.63,0,0,0-.19.34l-.1.24-.22.59a2.5,2.5,0,0,1-.34.62.86.86,0,0,1-.81.31h-.26a1.19,1.19,0,0,1-.65-.37A2.36,2.36,0,0,1,73,32a1.58,1.58,0,0,1,.18-.73l.53-1,.14-.29.1-.18.07-.12.06-.11.06-.1.06-.1.06-.1.23-.35.37-.58.12-.18V28.1a.46.46,0,0,1,.59-.17.12.12,0,0,1,.08.11.54.54,0,0,1-.05.21h0v.05l-.06.11v.05l-.1.18-.11.17-.07.12-.13.23-.17.32-.29.54-.33.63a3.19,3.19,0,0,0-.33.84,1.5,1.5,0,0,0,0,.84.82.82,0,0,0,1,.57l.17-.07a1.47,1.47,0,0,0,.55-.41l.09-.13.16-.21.13-.18.07-.1v-.05l.06-.09v-.05l0-.09.06-.09,1-1.85L78,28.46l.07-.13.07-.11v-.07h0v-.06h0V28l.14-.17.07-.06C78.61,27.67,78.64,27.66,78.67,27.68Z"/><path class="cls-9" d="M90,27.09a5.2,5.2,0,0,1-.21.55q-.27.57-.57,1.14a6.33,6.33,0,0,1-.39.61,1.61,1.61,0,0,1-.24.28.74.74,0,0,1-.51.2.44.44,0,0,1-.4-.18.83.83,0,0,1-.19-.64,2.84,2.84,0,0,1,.37-1.13,9,9,0,0,1,.62-.86,5.76,5.76,0,0,1,.59-.62,1.33,1.33,0,0,1,.41-.25l.22-.05a.36.36,0,0,1,.39.28v.11A1.77,1.77,0,0,1,90,27.09Zm3.62,1.54a5.09,5.09,0,0,1-1.12.95,2.18,2.18,0,0,1-.7.3,1.41,1.41,0,0,1-.29,0A.63.63,0,0,1,91,29.6a.67.67,0,0,1-.1-.31,1.72,1.72,0,0,1,0-.64c.07-.27.15-.54.24-.8.17-.5.36-1,.54-1.48l.2-.57a2.05,2.05,0,0,0,.07-.78,1,1,0,0,0-.23-.55,1,1,0,0,0-.56-.35,1.54,1.54,0,0,0-.9.09,5.5,5.5,0,0,0-1.2.69,13.29,13.29,0,0,0-1.64,1.45,6.09,6.09,0,0,0-.68.84A4.29,4.29,0,0,0,86,28.75a2.9,2.9,0,0,0,.18,1.86,2.18,2.18,0,0,0,1.22,1.13,1.34,1.34,0,0,0,1.64-.51,2.74,2.74,0,0,0,.21-.42c.08-.2.14-.41.21-.61s.07-.24.11-.36a.8.8,0,0,1,.18-.27.28.28,0,0,1,.38,0,.24.24,0,0,1,.06.09.54.54,0,0,1,0,.18,1.22,1.22,0,0,1,0,.27,2,2,0,0,0,.08,1.14.43.43,0,0,0,.51.33,1.56,1.56,0,0,0,.7-.19,3.5,3.5,0,0,0,1-.79,11.38,11.38,0,0,0,1-1.39,1.64,1.64,0,0,0,.22-.51c0-.06,0-.09-.13-.07Z"/><path class="cls-13" d="M90.16,24a1.87,1.87,0,0,1,1.07-.11,1.31,1.31,0,0,1,1,1.16,2.28,2.28,0,0,1-.06.82V26l-.18.51-.46,1.26-.1.29c-.08.23-.16.48-.24.78a1.51,1.51,0,0,0,0,.52.39.39,0,0,0,.06.18.3.3,0,0,0,.28.15h.22a2.23,2.23,0,0,0,.61-.27,4.77,4.77,0,0,0,1-.79l.1-.1.06-.07h.09c.31-.07.56.14.47.44a1.31,1.31,0,0,1-.16.43l-.1.17a10.79,10.79,0,0,1-1,1.43,3.41,3.41,0,0,1-1.09.87,1.8,1.8,0,0,1-.82.23.74.74,0,0,1-.81-.53,2.3,2.3,0,0,1-.1-1.22v-.08A.49.49,0,0,0,90,30v-.05h0V30h0v.07l-.08.26-.12.35v.26h0a2.77,2.77,0,0,1-.22.46,1.66,1.66,0,0,1-2,.64A2.49,2.49,0,0,1,86,30.77a3.2,3.2,0,0,1-.2-2,4.48,4.48,0,0,1,.74-1.67,8.54,8.54,0,0,1,.71-.88,15.54,15.54,0,0,1,1.67-1.47A6,6,0,0,1,90.16,24Zm1,.47a1.22,1.22,0,0,0-.73.08,5.1,5.1,0,0,0-1.13.65,12.61,12.61,0,0,0-1.6,1.41,6.48,6.48,0,0,0-.66.81,4,4,0,0,0-.64,1.46,2.59,2.59,0,0,0,.16,1.67,1.92,1.92,0,0,0,1.06,1,1.07,1.07,0,0,0,1.28-.39,2.64,2.64,0,0,0,.18-.38v-.11l.06-.16.12-.37.07-.22v-.07h0a.9.9,0,0,1,.25-.38.56.56,0,0,1,.79,0,.63.63,0,0,1,.13.2,1.41,1.41,0,0,1,0,.29v.33a1.8,1.8,0,0,0,.07,1,.15.15,0,0,0,.16.13h.06a1.62,1.62,0,0,0,.57-.16,2.9,2.9,0,0,0,.91-.72c.13-.16.26-.33.38-.5l.12-.17.06-.1-.11.08-.12.07a2.31,2.31,0,0,1-.79.34h-.35a.92.92,0,0,1-.77-.42,1,1,0,0,1-.16-.43,1.9,1.9,0,0,1,.06-.75c.07-.27.14-.5.21-.72l.06-.15L91,27.3l.31-.84.1-.28.14-.4a1.83,1.83,0,0,0,0-.66.71.71,0,0,0-.55-.63Zm-1.4,1.39h0a.63.63,0,0,1,.59.47v.21a1.84,1.84,0,0,1-.12.66,4.07,4.07,0,0,1-.22.58l-.14.29-.06.13-.13.26-.12.24-.07.12-.08.16-.06.11v.08l-.06.09-.13.2-.08.12a2.79,2.79,0,0,1-.28.32,1,1,0,0,1-.71.29.75.75,0,0,1-.64-.29A1.14,1.14,0,0,1,87.2,29a3.23,3.23,0,0,1,.41-1.25,8,8,0,0,1,.64-.89,4.84,4.84,0,0,1,.63-.65,1.49,1.49,0,0,1,.51-.31,1.05,1.05,0,0,1,.24-.06h.13Zm0,.6h-.09a1,1,0,0,0-.31.2,4.25,4.25,0,0,0-.55.57,7,7,0,0,0-.6.83,2.73,2.73,0,0,0-.32,1,.54.54,0,0,0,.12.42.18.18,0,0,0,.15.07.47.47,0,0,0,.32-.12,1.51,1.51,0,0,0,.21-.23L88.8,29l.09-.13.07-.12v-.14h0l.18-.35.12-.24c0-.05,0-.09.07-.13l.19-.41a3.17,3.17,0,0,0,.2-.51v-.11a.81.81,0,0,0,0-.31v-.1h0Z"/><path class="cls-14" d="M102.45,19V33.87h3.4V27.66h5.41V24.9h-5.51V21.73h6.9v6.89a5.38,5.38,0,0,0,2.94,5A6.38,6.38,0,0,0,118,34c1.34,0,2.08,0,2.77-.06a4.37,4.37,0,0,0,3.82-4c.06-1.09.07-6.72.07-6.73l-3-2.7v9.07c-.21,1.59-3.12,3-5.15.86a3.25,3.25,0,0,1-.63-2.11V19Z"/><path class="cls-14" d="M122.2,19h12.58v2.7h-4.23V33.91h-3.33V21.73h-2Z"/><path class="cls-14" d="M136,28.3l2.22-5.76,2,5.77Zm3.92-9.25h-3.4L131.23,33.9h2.93l1.16-3.37h5.46L142,33.89h3.12Z"/><path class="cls-15" d="M152.05,26.79v5h4.11a3.3,3.3,0,0,0,2.27-.69,2.45,2.45,0,0,0,.77-1.91,2.08,2.08,0,0,0-1.07-2,4.72,4.72,0,0,0-2.28-.46Zm0-6v4.44h3.48a3.89,3.89,0,0,0,2.19-.5,2.07,2.07,0,0,0,.81-1.82,1.86,1.86,0,0,0-.67-1.56,3.85,3.85,0,0,0-2.29-.56Zm-2,12.71V19.16h6.31a4.33,4.33,0,0,1,3,1.05,3.36,3.36,0,0,1,1,2.54,3.45,3.45,0,0,1-.36,1.58,3.31,3.31,0,0,1-1.56,1.42,5.87,5.87,0,0,1,1.64,1,3.4,3.4,0,0,1,1,2.54,3.94,3.94,0,0,1-1.22,3,5.15,5.15,0,0,1-3.65,1.26Z"/><path class="cls-16" d="M152.05,26.79v5h4.11a3.3,3.3,0,0,0,2.27-.69,2.45,2.45,0,0,0,.77-1.91,2.08,2.08,0,0,0-1.07-2,4.72,4.72,0,0,0-2.28-.46Zm0-6v4.44h3.48a3.89,3.89,0,0,0,2.19-.5,2.07,2.07,0,0,0,.81-1.82,1.86,1.86,0,0,0-.67-1.56,3.85,3.85,0,0,0-2.29-.56Zm-2,12.71V19.16h6.31a4.33,4.33,0,0,1,3,1.05,3.36,3.36,0,0,1,1,2.54,3.45,3.45,0,0,1-.36,1.58,3.31,3.31,0,0,1-1.56,1.42,5.87,5.87,0,0,1,1.64,1,3.4,3.4,0,0,1,1,2.54,3.94,3.94,0,0,1-1.22,3,5.15,5.15,0,0,1-3.65,1.26Z"/><path class="cls-15" d="M172.59,33.5h-1.68V32h-.09a3.88,3.88,0,0,1-1.32,1.41,3.77,3.77,0,0,1-2,.47,3.6,3.6,0,0,1-2.24-.68,3,3,0,0,1-1.14-2.6V23h1.77v7a2.36,2.36,0,0,0,.58,1.78,1.93,1.93,0,0,0,1.45.5,2.55,2.55,0,0,0,2.26-1.16,4.12,4.12,0,0,0,.61-2.32V23h1.77Z"/><path class="cls-16" d="M172.59,33.5h-1.68V32h-.09a3.88,3.88,0,0,1-1.32,1.41,3.77,3.77,0,0,1-2,.47,3.6,3.6,0,0,1-2.24-.68,3,3,0,0,1-1.14-2.6V23h1.77v7a2.36,2.36,0,0,0,.58,1.78,1.93,1.93,0,0,0,1.45.5,2.55,2.55,0,0,0,2.26-1.16,4.12,4.12,0,0,0,.61-2.32V23h1.77Z"/><path class="cls-15" d="M183.46,26h-1.72a1.59,1.59,0,0,0-.4-1.12,2.77,2.77,0,0,0-2.08-.64,2.48,2.48,0,0,0-1.52.41,1.25,1.25,0,0,0-.56,1.07,1,1,0,0,0,.44.88,6.51,6.51,0,0,0,1.48.52l1.76.44a4.93,4.93,0,0,1,2.25,1,2.33,2.33,0,0,1,.66,1.74,3.11,3.11,0,0,1-1.14,2.54,4.57,4.57,0,0,1-3,.94c-1.83,0-3.1-.46-3.82-1.36a3.64,3.64,0,0,1-.7-2.32h1.72a1.85,1.85,0,0,0,.78,1.66,4.3,4.3,0,0,0,3.68.09,1.42,1.42,0,0,0,.72-1.27,1,1,0,0,0-.43-.89,5.67,5.67,0,0,0-1.65-.62l-2-.49a3.84,3.84,0,0,1-1.74-.85,2.26,2.26,0,0,1-.66-1.7,3,3,0,0,1,1.2-2.52,4.53,4.53,0,0,1,2.76-.8,4.35,4.35,0,0,1,2.93.92A3,3,0,0,1,183.46,26Z"/><path class="cls-16" d="M183.46,26h-1.72a1.59,1.59,0,0,0-.4-1.12,2.77,2.77,0,0,0-2.08-.64,2.48,2.48,0,0,0-1.52.41,1.25,1.25,0,0,0-.56,1.07,1,1,0,0,0,.44.88,6.51,6.51,0,0,0,1.48.52l1.76.44a4.93,4.93,0,0,1,2.25,1,2.33,2.33,0,0,1,.66,1.74,3.11,3.11,0,0,1-1.14,2.54,4.57,4.57,0,0,1-3,.94c-1.83,0-3.1-.46-3.82-1.36a3.64,3.64,0,0,1-.7-2.32h1.72a1.85,1.85,0,0,0,.78,1.66,4.3,4.3,0,0,0,3.68.09,1.42,1.42,0,0,0,.72-1.27,1,1,0,0,0-.43-.89,5.67,5.67,0,0,0-1.65-.62l-2-.49a3.84,3.84,0,0,1-1.74-.85,2.26,2.26,0,0,1-.66-1.7,3,3,0,0,1,1.2-2.52,4.53,4.53,0,0,1,2.76-.8,4.35,4.35,0,0,1,2.93.92A3,3,0,0,1,183.46,26Z"/><path class="cls-15" d="M191.78,19.15V31.78h7.28V33.5h-9.23V19.15Z"/><path class="cls-16" d="M191.78,19.15V31.78h7.28V33.5h-9.23V19.15Z"/><path class="cls-15" d="M201.37,33.5h1.76V23h-1.76Zm0-12.35h1.76v-2h-1.76Z"/><path class="cls-16" d="M201.37,33.5h1.76V23h-1.76Zm0-12.35h1.76v-2h-1.76Z"/><path class="cls-15" d="M214.6,26.39V33.5h-1.76V27.07a3.51,3.51,0,0,0-.45-2.06,2.07,2.07,0,0,0-1.78-.7,2.45,2.45,0,0,0-1.74.66,3.59,3.59,0,0,0-1,2.82V33.5H206.1V23h1.64v1.48a5.76,5.76,0,0,1,1.07-1.08,3.7,3.7,0,0,1,2.13-.68,4.13,4.13,0,0,1,2.46.68A3.48,3.48,0,0,1,214.6,26.39Z"/><path class="cls-16" d="M214.6,26.39V33.5h-1.76V27.07a3.51,3.51,0,0,0-.45-2.06,2.07,2.07,0,0,0-1.78-.7,2.45,2.45,0,0,0-1.74.66,3.59,3.59,0,0,0-1,2.82V33.5H206.1V23h1.64v1.48a5.76,5.76,0,0,1,1.07-1.08,3.7,3.7,0,0,1,2.13-.68,4.13,4.13,0,0,1,2.46.68A3.48,3.48,0,0,1,214.6,26.39Z"/><path class="cls-15" d="M219.16,27.43H225a3.35,3.35,0,0,0-.67-2.16,2.92,2.92,0,0,0-4.13-.18c-.06.05-.12.12-.18.18A3.15,3.15,0,0,0,219.16,27.43Zm5.75,2.79h1.77a4.35,4.35,0,0,1-.47,1.26,4.23,4.23,0,0,1-1.42,1.58,4.07,4.07,0,0,1-1,.5,5.7,5.7,0,0,1-1.88.26,4.24,4.24,0,0,1-3.41-1.47,5.62,5.62,0,0,1-1.27-3.81,6.42,6.42,0,0,1,1.21-4.11,4.57,4.57,0,0,1,3.84-1.68,3.81,3.81,0,0,1,3.33,1.63,7.58,7.58,0,0,1,1.14,4.45h-7.63a3.76,3.76,0,0,0,.77,2.54,3.18,3.18,0,0,0,4.22.17A2.06,2.06,0,0,0,224.91,30.22Z"/><path class="cls-16" d="M219.16,27.43H225a3.35,3.35,0,0,0-.67-2.16,2.92,2.92,0,0,0-4.13-.18c-.06.05-.12.12-.18.18A3.15,3.15,0,0,0,219.16,27.43Zm5.75,2.79h1.77a4.35,4.35,0,0,1-.47,1.26,4.23,4.23,0,0,1-1.42,1.58,4.07,4.07,0,0,1-1,.5,5.7,5.7,0,0,1-1.88.26,4.24,4.24,0,0,1-3.41-1.47,5.62,5.62,0,0,1-1.27-3.81,6.42,6.42,0,0,1,1.21-4.11,4.57,4.57,0,0,1,3.84-1.68,3.81,3.81,0,0,1,3.33,1.63,7.58,7.58,0,0,1,1.14,4.45h-7.63a3.76,3.76,0,0,0,.77,2.54,3.18,3.18,0,0,0,4.22.17A2.06,2.06,0,0,0,224.91,30.22Z"/><path class="cls-15" d="M237.14,26h-1.71a1.54,1.54,0,0,0-.41-1.12,2.77,2.77,0,0,0-2.08-.64,2.47,2.47,0,0,0-1.51.41,1.25,1.25,0,0,0-.56,1.07,1,1,0,0,0,.43.88,6.92,6.92,0,0,0,1.49.52l1.75.44a4.82,4.82,0,0,1,2.26,1,2.33,2.33,0,0,1,.66,1.74,3.12,3.12,0,0,1-1.15,2.54,4.57,4.57,0,0,1-3,.94c-1.83,0-3.1-.46-3.82-1.36a3.64,3.64,0,0,1-.7-2.32h1.71a1.87,1.87,0,0,0,.78,1.66,3.67,3.67,0,0,0,2,.46,3.5,3.5,0,0,0,1.68-.37,1.43,1.43,0,0,0,.71-1.27,1,1,0,0,0-.43-.89,5.15,5.15,0,0,0-1.65-.62l-2-.49a3.76,3.76,0,0,1-1.73-.85,2.26,2.26,0,0,1-.66-1.7,3,3,0,0,1,1.2-2.52,4.47,4.47,0,0,1,2.76-.8,4.34,4.34,0,0,1,2.92.92A3,3,0,0,1,237.14,26Z"/><path class="cls-16" d="M237.14,26h-1.71a1.54,1.54,0,0,0-.41-1.12,2.77,2.77,0,0,0-2.08-.64,2.47,2.47,0,0,0-1.51.41,1.25,1.25,0,0,0-.56,1.07,1,1,0,0,0,.43.88,6.92,6.92,0,0,0,1.49.52l1.75.44a4.82,4.82,0,0,1,2.26,1,2.33,2.33,0,0,1,.66,1.74,3.12,3.12,0,0,1-1.15,2.54,4.57,4.57,0,0,1-3,.94c-1.83,0-3.1-.46-3.82-1.36a3.64,3.64,0,0,1-.7-2.32h1.71a1.87,1.87,0,0,0,.78,1.66,3.67,3.67,0,0,0,2,.46,3.5,3.5,0,0,0,1.68-.37,1.43,1.43,0,0,0,.71-1.27,1,1,0,0,0-.43-.89,5.15,5.15,0,0,0-1.65-.62l-2-.49a3.76,3.76,0,0,1-1.73-.85,2.26,2.26,0,0,1-.66-1.7,3,3,0,0,1,1.2-2.52,4.47,4.47,0,0,1,2.76-.8,4.34,4.34,0,0,1,2.92.92A3,3,0,0,1,237.14,26Z"/><path class="cls-17" d="M114.85,49.2a4.29,4.29,0,0,1-1.77.3,3.3,3.3,0,0,1-3.62-3,3.37,3.37,0,0,1,0-.55,3.56,3.56,0,0,1,3.39-3.69h.39a4.15,4.15,0,0,1,1.71.31l-.32,1.24a3.52,3.52,0,0,0-1.32-.25,2.28,2.28,0,0,0,0,4.55,3.87,3.87,0,0,0,1.3-.23Z"/><path class="cls-17" d="M117.45,42.48v2.66H120V42.48h1.56V49.4H120V46.5h-2.58v2.9h-1.57V42.48Z"/><path class="cls-17" d="M128.73,40l-1.38,1.17h-.75l.78-1.17Zm-2.41,6.45L125.89,45c-.12-.41-.24-.92-.35-1.33h0c-.1.41-.2.93-.32,1.33l-.41,1.47Zm-.12-5.61.92,1.27h-1l-.46-.65h0l-.47.65h-1l.92-1.27Zm-1.63,6.78-.5,1.78h-1.62l2.12-6.92h2.05l2.14,6.92h-1.68l-.53-1.78Z"/><path class="cls-17" d="M130.17,43.79h-1.85V42.48h5.31v1.31h-1.89V49.4h-1.57Z"/><path class="cls-17" d="M136.54,42.48h1.57v5.6h2.75V49.4h-4.32Z"/><path class="cls-17" d="M148.16,41.21a2.29,2.29,0,0,1,.23,1,1.07,1.07,0,0,1-1,1.12h-.26v3c0,2.13-1.07,3.15-2.88,3.15s-2.77-1-2.77-3.17V42.48H143v4c0,1.19.45,1.8,1.25,1.8s1.27-.58,1.27-1.8v-4h1.19c.42,0,.54-.14.54-.41a1.37,1.37,0,0,0-.22-.68Z"/><path class="cls-17" d="M151.24,50.93a.71.71,0,0,1,.71-.71h0a.69.69,0,0,1,.68.7h0a.7.7,0,0,1-.68.7A.72.72,0,0,1,151.24,50.93Zm2.38-5c0-1.25-.6-2.31-1.67-2.31s-1.67,1-1.67,2.34.62,2.32,1.68,2.32,1.66-1,1.66-2.36Zm1.91-4.35a2.31,2.31,0,0,1,.25,1,1,1,0,0,1-.86,1.12.81.81,0,0,1-.22,0,3.83,3.83,0,0,1,.57,2.11c0,2.27-1.37,3.65-3.39,3.65a3.24,3.24,0,0,1-3.27-3.19,2.62,2.62,0,0,1,0-.28,3.35,3.35,0,0,1,3-3.63H152a3.87,3.87,0,0,1,1.26.21,4.42,4.42,0,0,0,1,.36c.26,0,.38-.14.38-.41a1.53,1.53,0,0,0-.23-.75Z"/><path class="cls-17" d="M156.3,49.4V42.48h1.83L159.57,45a21.4,21.4,0,0,1,1.13,2.37h0a25.24,25.24,0,0,1-.14-2.88v-2H162V49.4h-1.64l-1.48-2.67c-.44-.8-.84-1.61-1.2-2.45h0c0,.92.06,1.89.06,3V49.4Z"/><path class="cls-17" d="M169.17,49.08a8,8,0,0,1-2.32.39,3.9,3.9,0,0,1-2.81-.93A3.39,3.39,0,0,1,163,46c0-2.3,1.68-3.62,4-3.62a4.84,4.84,0,0,1,1.92.34L168.61,44a3.72,3.72,0,0,0-1.61-.3,2.26,2.26,0,0,0-.11,4.51,1.85,1.85,0,0,0,.77-.11V46.66h-1.07V45.43h2.58Z"/><path class="cls-17" d="M172.46,42.48H174v5.6h2.75V49.4h-4.32Z"/><path class="cls-17" d="M181.14,46.45,180.71,45c-.13-.41-.25-.92-.35-1.33h0c-.11.41-.21.93-.32,1.33l-.41,1.47Zm-.84-5.61.87,1.25h-1.25l-1.26-1.25Zm-.92,6.78-.49,1.78h-1.62l2.11-6.92h2.05l2.15,6.92H181.9l-.54-1.78Z"/><path class="cls-17" d="M188.15,48.22a2.44,2.44,0,0,0,.54,0,2.15,2.15,0,0,0,2.32-2,2.06,2.06,0,0,0,0-.43,2,2,0,0,0-1.79-2.19,2.41,2.41,0,0,0-.38,0,2.8,2.8,0,0,0-.71.06Zm-1.57-5.65a14.87,14.87,0,0,1,2.11-.15,4.48,4.48,0,0,1,2.84.74,3.06,3.06,0,0,1,1.17,2.61,3.56,3.56,0,0,1-1.15,2.81,5,5,0,0,1-3.19.89,15.17,15.17,0,0,1-1.78-.1Z"/><path class="cls-17" d="M196.93,46.45,196.5,45c-.13-.41-.25-.92-.35-1.33h0c-.11.41-.21.93-.32,1.33l-.41,1.47Zm-1.76,1.17-.49,1.78h-1.62l2.11-6.92h2.06l2.14,6.92h-1.68l-.54-1.78Z"/><path class="cls-17" d="M200.3,49.4V42.48h1.82L203.56,45a21.4,21.4,0,0,1,1.13,2.37h0a25.23,25.23,0,0,1-.13-2.88v-2H206V49.4h-1.64l-1.48-2.67c-.44-.8-.84-1.61-1.2-2.45h0c0,.92.06,1.89.06,3V49.4Z"/><path class="cls-17" d="M209,42.48v2.66h2.58V42.48h1.56V49.4h-1.56V46.5H209v2.9h-1.57V42.48Z"/><path class="cls-17" d="M218.1,48.22a2.44,2.44,0,0,0,.54,0A2.15,2.15,0,0,0,221,46.31a2.55,2.55,0,0,0-1.79-2.68,2.41,2.41,0,0,0-.38,0,2.8,2.8,0,0,0-.71.06Zm-1.57-5.65a14.87,14.87,0,0,1,2.11-.15,4.48,4.48,0,0,1,2.84.74,3.1,3.1,0,0,1,1.17,2.61,3.56,3.56,0,0,1-1.15,2.81,5,5,0,0,1-3.2.89,15,15,0,0,1-1.77-.1Z"/><path class="cls-17" d="M225.83,50.93a.71.71,0,0,1,.71-.71h0a.69.69,0,0,1,.69.69v0a.71.71,0,0,1-1.41,0Zm4.54-9.72a2.28,2.28,0,0,1,.22,1,1.07,1.07,0,0,1-1,1.12h-.25v3c0,2.13-1.08,3.15-2.89,3.15s-2.77-1-2.77-3.17V42.48h1.58v4c0,1.19.44,1.8,1.25,1.8s1.27-.58,1.27-1.8v-4H229c.42,0,.54-.14.54-.41a1.37,1.37,0,0,0-.22-.68Z"/><path class="cls-18" d="M114.85,49.2a4.29,4.29,0,0,1-1.77.3,3.3,3.3,0,0,1-3.62-3,3.37,3.37,0,0,1,0-.55,3.56,3.56,0,0,1,3.39-3.69h.39a4.15,4.15,0,0,1,1.71.31l-.32,1.24a3.52,3.52,0,0,0-1.32-.25,2.28,2.28,0,0,0,0,4.55,3.87,3.87,0,0,0,1.3-.23Z"/><path class="cls-18" d="M117.45,42.48v2.66H120V42.48h1.56V49.4H120V46.5h-2.58v2.9h-1.57V42.48Z"/><path class="cls-18" d="M128.73,40l-1.38,1.17h-.75l.78-1.17Zm-2.41,6.45L125.89,45c-.12-.41-.24-.92-.35-1.33h0c-.1.41-.2.93-.32,1.33l-.41,1.47Zm-.12-5.61.92,1.27h-1l-.46-.65h0l-.47.65h-1l.92-1.27Zm-1.63,6.78-.5,1.78h-1.62l2.12-6.92h2.05l2.14,6.92h-1.68l-.53-1.78Z"/><path class="cls-18" d="M130.17,43.79h-1.85V42.48h5.31v1.31h-1.89V49.4h-1.57Z"/><path class="cls-18" d="M136.54,42.48h1.57v5.6h2.75V49.4h-4.32Z"/><path class="cls-18" d="M148.16,41.21a2.29,2.29,0,0,1,.23,1,1.07,1.07,0,0,1-1,1.12h-.26v3c0,2.13-1.07,3.15-2.88,3.15s-2.77-1-2.77-3.17V42.48H143v4c0,1.19.45,1.8,1.25,1.8s1.27-.58,1.27-1.8v-4h1.19c.42,0,.54-.14.54-.41a1.37,1.37,0,0,0-.22-.68Z"/><path class="cls-18" d="M151.24,50.93a.71.71,0,0,1,.71-.71h0a.69.69,0,0,1,.68.7h0a.7.7,0,0,1-.68.7A.72.72,0,0,1,151.24,50.93Zm2.38-5c0-1.25-.6-2.31-1.67-2.31s-1.67,1-1.67,2.34.62,2.32,1.68,2.32,1.66-1,1.66-2.36Zm1.91-4.35a2.31,2.31,0,0,1,.25,1,1,1,0,0,1-.86,1.12.81.81,0,0,1-.22,0,3.83,3.83,0,0,1,.57,2.11c0,2.27-1.37,3.65-3.39,3.65a3.24,3.24,0,0,1-3.27-3.19,2.62,2.62,0,0,1,0-.28,3.35,3.35,0,0,1,3-3.63H152a3.87,3.87,0,0,1,1.26.21,4.42,4.42,0,0,0,1,.36c.26,0,.38-.14.38-.41a1.53,1.53,0,0,0-.23-.75Z"/><path class="cls-18" d="M156.3,49.4V42.48h1.83L159.57,45a21.4,21.4,0,0,1,1.13,2.37h0a25.24,25.24,0,0,1-.14-2.88v-2H162V49.4h-1.64l-1.48-2.67c-.44-.8-.84-1.61-1.2-2.45h0c0,.92.06,1.89.06,3V49.4Z"/><path class="cls-18" d="M169.17,49.08a8,8,0,0,1-2.32.39,3.9,3.9,0,0,1-2.81-.93A3.39,3.39,0,0,1,163,46c0-2.3,1.68-3.62,4-3.62a4.84,4.84,0,0,1,1.92.34L168.61,44a3.72,3.72,0,0,0-1.61-.3,2.26,2.26,0,0,0-.11,4.51,1.85,1.85,0,0,0,.77-.11V46.66h-1.07V45.43h2.58Z"/><path class="cls-18" d="M172.46,42.48H174v5.6h2.75V49.4h-4.32Z"/><path class="cls-18" d="M181.14,46.45,180.71,45c-.13-.41-.25-.92-.35-1.33h0c-.11.41-.21.93-.32,1.33l-.41,1.47Zm-.84-5.61.87,1.25h-1.25l-1.26-1.25Zm-.92,6.78-.49,1.78h-1.62l2.11-6.92h2.05l2.15,6.92H181.9l-.54-1.78Z"/><path class="cls-18" d="M188.15,48.22a2.44,2.44,0,0,0,.54,0,2.15,2.15,0,0,0,2.32-2,2.06,2.06,0,0,0,0-.43,2,2,0,0,0-1.79-2.19,2.41,2.41,0,0,0-.38,0,2.8,2.8,0,0,0-.71.06Zm-1.57-5.65a14.87,14.87,0,0,1,2.11-.15,4.48,4.48,0,0,1,2.84.74,3.06,3.06,0,0,1,1.17,2.61,3.56,3.56,0,0,1-1.15,2.81,5,5,0,0,1-3.19.89,15.17,15.17,0,0,1-1.78-.1Z"/><path class="cls-18" d="M196.93,46.45,196.5,45c-.13-.41-.25-.92-.35-1.33h0c-.11.41-.21.93-.32,1.33l-.41,1.47Zm-1.76,1.17-.49,1.78h-1.62l2.11-6.92h2.06l2.14,6.92h-1.68l-.54-1.78Z"/><path class="cls-18" d="M200.3,49.4V42.48h1.82L203.56,45a21.4,21.4,0,0,1,1.13,2.37h0a25.23,25.23,0,0,1-.13-2.88v-2H206V49.4h-1.64l-1.48-2.67c-.44-.8-.84-1.61-1.2-2.45h0c0,.92.06,1.89.06,3V49.4Z"/><path class="cls-18" d="M209,42.48v2.66h2.58V42.48h1.56V49.4h-1.56V46.5H209v2.9h-1.57V42.48Z"/><path class="cls-18" d="M218.1,48.22a2.44,2.44,0,0,0,.54,0A2.15,2.15,0,0,0,221,46.31a2.55,2.55,0,0,0-1.79-2.68,2.41,2.41,0,0,0-.38,0,2.8,2.8,0,0,0-.71.06Zm-1.57-5.65a14.87,14.87,0,0,1,2.11-.15,4.48,4.48,0,0,1,2.84.74,3.1,3.1,0,0,1,1.17,2.61,3.56,3.56,0,0,1-1.15,2.81,5,5,0,0,1-3.2.89,15,15,0,0,1-1.77-.1Z"/><path class="cls-18" d="M225.83,50.93a.71.71,0,0,1,.71-.71h0a.69.69,0,0,1,.69.69v0a.71.71,0,0,1-1.41,0Zm4.54-9.72a2.28,2.28,0,0,1,.22,1,1.07,1.07,0,0,1-1,1.12h-.25v3c0,2.13-1.08,3.15-2.89,3.15s-2.77-1-2.77-3.17V42.48h1.58v4c0,1.19.44,1.8,1.25,1.8s1.27-.58,1.27-1.8v-4H229c.42,0,.54-.14.54-.41a1.37,1.37,0,0,0-.22-.68Z"/></g></svg>