<svg width="48" height="48" viewBox="0 0 48 48" fill="none" xmlns="http://www.w3.org/2000/svg">
<g clip-path="url(#clip0_1233_58560)">
<path d="M47.1628 36.1465C47.1809 36.1429 47.1985 36.1381 47.2163 36.1335C47.2314 36.1296 47.2467 36.1264 47.2615 36.1218C47.2789 36.1166 47.2958 36.11 47.3127 36.1039C47.3277 36.0985 47.3429 36.0937 47.3577 36.0874C47.3737 36.0808 47.3891 36.073 47.4046 36.0656C47.4198 36.0584 47.4352 36.0518 47.45 36.0437C47.4649 36.0358 47.4789 36.0268 47.4933 36.0182C47.5082 36.0093 47.5231 36.001 47.5376 35.9912C47.553 35.981 47.5673 35.9696 47.5821 35.9585C47.5946 35.9492 47.6074 35.9404 47.6196 35.9304C47.6421 35.912 47.6635 35.8923 47.6843 35.872C47.688 35.8684 47.6921 35.8654 47.6958 35.8616C47.6997 35.8577 47.703 35.8534 47.7068 35.8494C47.7268 35.8288 47.7462 35.8078 47.7645 35.7855C47.7752 35.7725 47.7845 35.7589 47.7945 35.7454C47.8048 35.7316 47.8156 35.7181 47.8252 35.7037C47.8354 35.6882 47.8445 35.6723 47.8539 35.6565C47.8618 35.6431 47.8703 35.6301 47.8776 35.6164C47.8862 35.6004 47.8935 35.5839 47.9011 35.5676C47.9079 35.5532 47.9151 35.5389 47.9214 35.5241C47.928 35.5081 47.9333 35.4919 47.9391 35.4756C47.9448 35.4598 47.9509 35.4441 47.9558 35.428C47.9608 35.4116 47.9644 35.395 47.9685 35.3783C47.9726 35.3619 47.9773 35.3458 47.9805 35.3293C47.9844 35.3098 47.9867 35.29 47.9895 35.2703C47.9914 35.2565 47.9941 35.2427 47.9955 35.2287C47.9989 35.1941 48.0007 35.1596 48.0007 35.1249V12.8749C48.0007 12.2999 47.5348 11.834 46.9598 11.834H14.1695C14.1603 11.834 14.1514 11.8351 14.1423 11.8354C14.1224 11.8359 14.1027 11.8368 14.083 11.8384C14.0673 11.8397 14.0518 11.8415 14.0362 11.8436C14.0185 11.8458 14.0009 11.8484 13.9832 11.8516C13.9667 11.8545 13.9503 11.858 13.9341 11.8617C13.9176 11.8656 13.9011 11.8698 13.8847 11.8745C13.8684 11.8791 13.8525 11.8841 13.8367 11.8894C13.8204 11.8949 13.8042 11.9007 13.7882 11.9071C13.7731 11.9131 13.7582 11.9192 13.7435 11.9259C13.7271 11.9332 13.7109 11.9411 13.6948 11.9493C13.6811 11.9564 13.6676 11.9636 13.6543 11.9713C13.6382 11.9804 13.6224 11.9901 13.6067 12.0001C13.5938 12.0084 13.5811 12.0171 13.5686 12.0258C13.5539 12.0362 13.5394 12.047 13.5251 12.0584C13.512 12.0688 13.4992 12.0795 13.4866 12.0905C13.4741 12.1014 13.4618 12.1124 13.4497 12.1241C13.436 12.1373 13.4228 12.151 13.4097 12.1649C13.4032 12.1718 13.3963 12.1779 13.39 12.185C13.3863 12.1892 13.3834 12.1937 13.3797 12.1979C13.3667 12.213 13.3545 12.2289 13.3423 12.2448C13.3334 12.2565 13.3242 12.2681 13.3159 12.2801C13.3051 12.2956 13.2951 12.3116 13.2851 12.3277C13.2769 12.3409 13.2684 12.3539 13.2609 12.3674C13.2522 12.3829 13.2446 12.3989 13.2366 12.4148C13.2294 12.4294 13.2219 12.444 13.2154 12.4588C13.2086 12.4745 13.2026 12.4908 13.1967 12.5067C13.1907 12.5224 13.1846 12.538 13.1795 12.5538C13.1743 12.5697 13.1702 12.586 13.1657 12.6022C13.1613 12.6189 13.1566 12.6354 13.1528 12.6522C13.1493 12.6679 13.147 12.6838 13.1442 12.6996C13.1412 12.7177 13.1381 12.7357 13.1359 12.7538C13.1341 12.7688 13.1332 12.784 13.1321 12.7993C13.1307 12.8187 13.1295 12.8382 13.1292 12.8577C13.1291 12.8634 13.1284 12.869 13.1284 12.8747V19.2942C13.1284 19.8692 13.5943 20.3352 14.1693 20.3352C14.7444 20.3352 15.2103 19.8692 15.2103 19.2942V15.1866L24.4653 23.3806C24.417 23.4146 24.3705 23.4522 24.3272 23.4954L15.2102 32.6124V25.7715C15.2102 25.1965 14.7442 24.7305 14.1692 24.7305C13.5942 24.7305 13.1282 25.1965 13.1282 25.7715V27.0434H7.74995C7.17492 27.0434 6.70898 27.5093 6.70898 28.0844C6.70898 28.6594 7.17492 29.1253 7.74995 29.1253H13.1282V35.1256C13.1282 35.7006 13.5942 36.1665 14.1692 36.1665H46.9595C46.9938 36.1665 47.0281 36.1647 47.0622 36.1614C47.0782 36.1599 47.0936 36.1568 47.1093 36.1546C47.1273 36.1521 47.1451 36.15 47.1628 36.1465ZM45.9187 32.6126L36.8015 23.4955C36.7957 23.4897 36.7894 23.4848 36.7835 23.4793L43.6376 17.6642C44.0759 17.2922 44.1298 16.6355 43.7578 16.197C43.3861 15.7588 42.7293 15.7047 42.2906 16.0768L30.5789 26.0131L16.9154 13.916H45.9187V32.6126ZM25.7995 24.9679C25.8738 24.8936 25.934 24.8109 25.9811 24.7229L29.8744 28.1699C30.0712 28.3441 30.3177 28.4315 30.5645 28.4315C30.8041 28.4315 31.0435 28.3492 31.2381 28.1843L35.2058 24.818C35.2419 24.8707 35.2826 24.9211 35.3293 24.9679L44.4463 34.0849H16.6825L25.7995 24.9679Z" fill="#F15A24"/>
<path d="M1.04096 23.6893H18.6217C19.1967 23.6893 19.6627 23.2234 19.6627 22.6484C19.6627 22.0734 19.1967 21.6074 18.6217 21.6074H1.04096C0.465934 21.6074 0 22.0734 0 22.6484C0 23.2234 0.465934 23.6893 1.04096 23.6893Z" fill="#F15A24"/>
<path d="M2.86323 17.953H10.7572C11.3322 17.953 11.7981 17.4871 11.7981 16.9121C11.7981 16.337 11.3322 15.8711 10.7572 15.8711H2.86323C2.2882 15.8711 1.82227 16.337 1.82227 16.9121C1.82227 17.4871 2.2882 17.953 2.86323 17.953Z" fill="#F15A24"/>
<path d="M8.67468 31.4385H1.04096C0.465935 31.4385 0 31.9044 0 32.4794C0 33.0545 0.465935 33.5204 1.04096 33.5204H8.67468C9.24971 33.5204 9.71564 33.0545 9.71564 32.4794C9.71564 31.9044 9.24971 31.4385 8.67468 31.4385Z" fill="#F15A24"/>
</g>
<defs>
<clipPath id="clip0_1233_58560">
<rect width="48" height="48" fill="white"/>
</clipPath>
</defs>
</svg>
