<svg width="40" height="40" viewBox="0 0 40 40" fill="none" xmlns="http://www.w3.org/2000/svg">
<g clip-path="url(#clip0_3166_9735)">
<rect width="40" height="40" rx="6" fill="#AD2070"/>
<path fill-rule="evenodd" clip-rule="evenodd" d="M5 8.5C5 6.01472 7.01472 4 9.5 4C10.9136 4 12.175 4.65183 13 5.67134C13.825 4.65183 15.0864 4 16.5 4C18.9853 4 21 6.01472 21 8.5V17H17V9C17 8.44772 16.5523 8 16 8C15.4477 8 15 8.44772 15 9V17H14H12H11V9C11 8.44772 10.5523 8 10 8C9.44772 8 9 8.44772 9 9V17H5V8.5Z" fill="white"/>
<path fill-rule="evenodd" clip-rule="evenodd" d="M28.5 17C32.0899 17 35 14.0899 35 10.5C35 6.91015 32.0899 4 28.5 4C24.9101 4 22 6.91015 22 10.5C22 14.0899 24.9101 17 28.5 17ZM28.5 13C29.8807 13 31 11.8807 31 10.5C31 9.11929 29.8807 8 28.5 8C27.1193 8 26 9.11929 26 10.5C26 11.8807 27.1193 13 28.5 13Z" fill="white"/>
<path fill-rule="evenodd" clip-rule="evenodd" d="M5 23.5C5 21.0147 7.01472 19 9.5 19C10.9136 19 12.175 19.6518 13 20.6713C13.825 19.6518 15.0864 19 16.5 19C18.9853 19 21 21.0147 21 23.5V32H17V24C17 23.4477 16.5523 23 16 23C15.4477 23 15 23.4477 15 24V32H14H12H11V24C11 23.4477 10.5523 23 10 23C9.44772 23 9 23.4477 9 24V32H5V23.5Z" fill="white"/>
<path fill-rule="evenodd" clip-rule="evenodd" d="M28.5 32C32.0899 32 35 29.0899 35 25.5C35 21.9101 32.0899 19 28.5 19C24.9101 19 22 21.9101 22 25.5C22 29.0899 24.9101 32 28.5 32ZM28.5 28C29.8807 28 31 26.8807 31 25.5C31 24.1193 29.8807 23 28.5 23C27.1193 23 26 24.1193 26 25.5C26 26.8807 27.1193 28 28.5 28Z" fill="white"/>
<path fill-rule="evenodd" clip-rule="evenodd" d="M14.9672 33.5234C15.1449 33.5234 15.2895 33.3789 15.2895 33.1973C15.2895 33.0156 15.1449 32.873 14.9672 32.873C14.7914 32.873 14.6449 33.0156 14.6449 33.1973C14.6449 33.3789 14.7914 33.5234 14.9672 33.5234ZM13.1422 36.0332C13.6832 36.0332 14.0152 35.6133 14.0152 34.9219C14.0152 34.2266 13.6871 33.8105 13.1422 33.8105C12.8473 33.8105 12.6051 33.9531 12.4957 34.1895H12.4605V33.0234H11.8922V36H12.443V35.6621H12.4781C12.5934 35.8965 12.8375 36.0332 13.1422 36.0332ZM5.85352 36V34.7031C5.85352 34.4629 6.01172 34.2891 6.23438 34.2891C6.45703 34.2891 6.58984 34.4199 6.58984 34.6484V36H7.13672V34.6816C7.13672 34.4531 7.28516 34.2891 7.51562 34.2891C7.75586 34.2891 7.875 34.416 7.875 34.6719V36H8.44336V34.5215C8.44336 34.0781 8.17578 33.7988 7.74609 33.7988C7.44531 33.7988 7.19727 33.957 7.09766 34.1973H7.0625C6.97656 33.9473 6.76953 33.7988 6.4668 33.7988C6.18359 33.7988 5.95898 33.9512 5.87109 34.1973H5.83594V33.8457H5.28516V36H5.85352ZM10.1492 36.0469C10.8113 36.0469 11.2098 35.627 11.2098 34.9219C11.2098 34.2227 10.8055 33.7988 10.1492 33.7988C9.49297 33.7988 9.08867 34.2246 9.08867 34.9219C9.08867 35.627 9.48711 36.0469 10.1492 36.0469ZM9.67266 34.9219C9.67266 35.3418 9.84453 35.582 10.1492 35.582C10.452 35.582 10.6258 35.3398 10.6258 34.9219C10.6258 34.5078 10.45 34.2637 10.1492 34.2637C9.84648 34.2637 9.67266 34.5078 9.67266 34.9219ZM12.4547 34.9238C12.4566 35.3145 12.6441 35.5586 12.9449 35.5586C13.2477 35.5586 13.4312 35.3164 13.4312 34.9219C13.4312 34.5293 13.2457 34.2871 12.9449 34.2871C12.6461 34.2871 12.4566 34.5312 12.4547 34.9238ZM15.2504 33.8457V36H14.682V33.8457H15.2504ZM16.6125 36V33.0234H16.0441V36H16.6125ZM19.3242 35.3867C19.2402 35.791 18.8672 36.0469 18.3398 36.0469C17.6836 36.0469 17.2969 35.6328 17.2969 34.9336C17.2969 34.2324 17.6914 33.7988 18.332 33.7988C18.9668 33.7988 19.3418 34.2031 19.3418 34.8867V35.0605H17.8633V35.0898C17.8711 35.4102 18.0586 35.6094 18.3555 35.6094C18.5801 35.6094 18.7344 35.5293 18.7949 35.3867H19.3242ZM18.7832 34.6973H17.8652C17.8848 34.418 18.0703 34.2344 18.334 34.2344C18.5996 34.2344 18.7715 34.4121 18.7832 34.6973ZM21.8062 34.7031V36H21.2379V33.8457H21.7887V34.1973H21.8238C21.9117 33.9512 22.1363 33.7988 22.4195 33.7988C22.7223 33.7988 22.9293 33.9473 23.0152 34.1973H23.0504C23.15 33.957 23.398 33.7988 23.6988 33.7988C24.1285 33.7988 24.3961 34.0781 24.3961 34.5215V36H23.8277V34.6719C23.8277 34.416 23.7086 34.2891 23.4684 34.2891C23.2379 34.2891 23.0895 34.4531 23.0895 34.6816V36H22.5426V34.6484C22.5426 34.4199 22.4098 34.2891 22.1871 34.2891C21.9645 34.2891 21.8062 34.4629 21.8062 34.7031ZM26.102 36.0469C26.7641 36.0469 27.1625 35.627 27.1625 34.9219C27.1625 34.2227 26.7582 33.7988 26.102 33.7988C25.4457 33.7988 25.0414 34.2246 25.0414 34.9219C25.0414 35.627 25.4398 36.0469 26.102 36.0469ZM25.6254 34.9219C25.6254 35.3418 25.7973 35.582 26.102 35.582C26.4047 35.582 26.5785 35.3398 26.5785 34.9219C26.5785 34.5078 26.4027 34.2637 26.102 34.2637C25.7992 34.2637 25.6254 34.5078 25.6254 34.9219ZM28.3937 36V34.7578C28.3937 34.4746 28.5559 34.2891 28.8195 34.2891C29.0891 34.2891 29.216 34.4453 29.216 34.7422V36H29.7844V34.6074C29.7844 34.0918 29.5266 33.7988 29.048 33.7988C28.7297 33.7988 28.5109 33.9492 28.4113 34.1914H28.3762V33.8457H27.8254V36H28.3937ZM32.457 35.3867C32.373 35.791 32 36.0469 31.4727 36.0469C30.8164 36.0469 30.4297 35.6328 30.4297 34.9336C30.4297 34.2324 30.8242 33.7988 31.4648 33.7988C32.0996 33.7988 32.4746 34.2031 32.4746 34.8867V35.0605H30.9961V35.0898C31.0039 35.4102 31.1914 35.6094 31.4883 35.6094C31.7129 35.6094 31.8672 35.5293 31.9277 35.3867H32.457ZM31.916 34.6973H30.998C31.0176 34.418 31.2031 34.2344 31.4668 34.2344C31.7324 34.2344 31.9043 34.4121 31.916 34.6973ZM34.3328 36.0332C34.1492 36.5879 33.8855 36.7832 33.3484 36.7832C33.327 36.7832 33.1551 36.7812 33.1316 36.7773V36.3203C33.1512 36.3242 33.2371 36.3242 33.2605 36.3242C33.4734 36.3242 33.5945 36.2559 33.6414 36.0918L33.6609 36.0137L32.9051 33.8457H33.532L33.9852 35.4785H34.0203L34.4734 33.8457H35.075L34.3328 36.0332Z" fill="white"/>
</g>
<defs>
<clipPath id="clip0_3166_9735">
<rect width="40" height="40" fill="white"/>
</clipPath>
</defs>
</svg>
