<svg width="24" height="24" viewBox="0 0 24 24" fill="none" xmlns="http://www.w3.org/2000/svg">
<path d="M3 17H21C21.55 17 22 17.45 22 18C22 18.55 21.55 19 21 19H3C2.45 19 2 18.55 2 18C2 17.45 2.45 17 3 17ZM2.5 12.57C2.86 12.78 3.32 12.65 3.53 12.29L4 11.47L4.48 12.3C4.69 12.66 5.15 12.78 5.51 12.58C5.87 12.37 5.99 11.92 5.79 11.56L5.3 10.72H6.25C6.66 10.72 7 10.38 7 9.97C7 9.56 6.66 9.22 6.25 9.22H5.3L5.77 8.4C5.98 8.04 5.86 7.58 5.5 7.37C5.14 7.17 4.68 7.29 4.47 7.65L4 8.47L3.53 7.65C3.32 7.29 2.86 7.17 2.5 7.37C2.14 7.58 2.02 8.04 2.23 8.4L2.7 9.22H1.75C1.34 9.22 1 9.56 1 9.97C1 10.38 1.34 10.72 1.75 10.72H2.7L2.22 11.55C2.02 11.91 2.14 12.37 2.5 12.57ZM10.5 12.57C10.86 12.78 11.32 12.65 11.53 12.29L12 11.47L12.48 12.3C12.69 12.66 13.15 12.78 13.51 12.58C13.87 12.37 13.99 11.92 13.79 11.56L13.31 10.73H14.26C14.67 10.73 15.01 10.39 15.01 9.98C15.01 9.57 14.67 9.23 14.26 9.23H13.3L13.77 8.41C13.98 8.05 13.85 7.59 13.5 7.38C13.14 7.17 12.68 7.3 12.48 7.65L12 8.47L11.53 7.65C11.32 7.29 10.86 7.17 10.51 7.38C10.15 7.59 10.03 8.05 10.24 8.41L10.71 9.23H9.75C9.34 9.22 9 9.56 9 9.97C9 10.38 9.34 10.72 9.75 10.72H10.7L10.22 11.55C10.02 11.91 10.14 12.37 10.5 12.57ZM23 9.97C23 9.56 22.66 9.22 22.25 9.22H21.3L21.77 8.4C21.98 8.04 21.85 7.58 21.5 7.37C21.14 7.16 20.68 7.29 20.48 7.64L20 8.47L19.53 7.65C19.32 7.29 18.86 7.17 18.51 7.38C18.15 7.59 18.03 8.05 18.24 8.41L18.71 9.23H17.76C17.34 9.22 17 9.56 17 9.97C17 10.38 17.34 10.72 17.75 10.72H18.7L18.22 11.55C18.01 11.91 18.14 12.37 18.5 12.57C18.86 12.78 19.32 12.65 19.53 12.29L20 11.47L20.48 12.3C20.69 12.66 21.15 12.78 21.51 12.58C21.87 12.37 21.99 11.92 21.79 11.56L21.31 10.73H22.26C22.66 10.72 23 10.38 23 9.97Z" fill="#F2754E"/>
</svg>
