<svg width="19" height="16" viewBox="0 0 19 16" fill="none" xmlns="http://www.w3.org/2000/svg">
<path d="M0.57 5.38927H1.9C2.0045 5.38927 2.09 5.31584 2.09 5.2261V1.63635H6.27C6.3745 1.63635 6.46 1.56292 6.46 1.47318V0.330986C6.46 0.241243 6.3745 0.167816 6.27 0.167816H1.995C1.102 0.167816 0.38 0.787863 0.38 1.55476V5.2261C0.38 5.31584 0.4655 5.38927 0.57 5.38927ZM12.73 1.63635H16.91V5.2261C16.91 5.31584 16.9955 5.38927 17.1 5.38927H18.43C18.5345 5.38927 18.62 5.31584 18.62 5.2261V1.55476C18.62 0.787863 17.898 0.167816 17.005 0.167816H12.73C12.6255 0.167816 12.54 0.241243 12.54 0.330986V1.47318C12.54 1.56292 12.6255 1.63635 12.73 1.63635ZM6.27 14.3636H2.09V10.7739C2.09 10.6841 2.0045 10.6107 1.9 10.6107H0.57C0.4655 10.6107 0.38 10.6841 0.38 10.7739V14.4452C0.38 15.2121 1.102 15.8322 1.995 15.8322H6.27C6.3745 15.8322 6.46 15.7587 6.46 15.669V14.5268C6.46 14.4371 6.3745 14.3636 6.27 14.3636ZM18.43 10.6107H17.1C16.9955 10.6107 16.91 10.6841 16.91 10.7739V14.3636H12.73C12.6255 14.3636 12.54 14.4371 12.54 14.5268V15.669C12.54 15.7587 12.6255 15.8322 12.73 15.8322H17.005C17.898 15.8322 18.62 15.2121 18.62 14.4452V10.7739C18.62 10.6841 18.5345 10.6107 18.43 10.6107ZM18.81 7.26573H0.19C0.0855 7.26573 0 7.33915 0 7.4289V8.57109C0 8.66083 0.0855 8.73426 0.19 8.73426H18.81C18.9145 8.73426 19 8.66083 19 8.57109V7.4289C19 7.33915 18.9145 7.26573 18.81 7.26573Z" fill="#111111"/>
</svg>
