<svg width="40" height="40" viewBox="0 0 40 40" fill="none" xmlns="http://www.w3.org/2000/svg">
<g clip-path="url(#clip0_3166_9694)">
<rect width="40" height="40" rx="6" fill="#F5A623"/>
<mask id="mask0_3166_9694" style="mask-type:alpha" maskUnits="userSpaceOnUse" x="0" y="0" width="40" height="40">
<rect width="40" height="40" rx="6" fill="white"/>
</mask>
<g mask="url(#mask0_3166_9694)">
<rect y="22" width="40" height="18" fill="url(#paint0_linear_3166_9694)"/>
<rect width="40" height="27" rx="5" fill="white"/>
<path fill-rule="evenodd" clip-rule="evenodd" d="M11.5487 12.3739V15.9978C11.5487 16.1438 11.5866 16.168 11.6814 16.2899L12.0981 16.8297H10.0853C10.1942 16.6547 10.3079 16.4843 10.4262 16.3189C10.5115 16.178 10.5493 16.1243 10.5493 15.964V10.9001L9.9811 10H12.0697L15.4513 14.2808V10.866C15.4513 10.7006 15.4228 10.652 15.3328 10.5108C15.2239 10.3406 15.1055 10.1703 14.987 10.005H17L16.5832 10.5449C16.4885 10.6616 16.46 10.6907 16.46 10.8368V17C15.6927 16.8978 14.9777 16.7178 14.3524 15.9202L11.5487 12.3739ZM3 10H5.14546L6.93573 15.0689L8.46556 10.866C8.49385 10.7006 8.47024 10.652 8.40389 10.5108C8.32345 10.3406 8.23349 10.1703 8.14354 10.005H9.74416C9.65421 10.3455 9.51213 10.7202 9.39386 11.0704L7.32413 16.9757C6.7605 16.8637 6.13526 16.6449 5.64758 16.1876C5.28286 15.847 5.15016 15.4627 4.97022 14.996L3.24161 10.5012C3.17523 10.3164 3.08999 10.1607 3 10Z" fill="#ED1C24"/>
<path fill-rule="evenodd" clip-rule="evenodd" d="M18.5058 15.9353V11.1168C18.5058 10.8186 18.4684 10.5939 18.3938 10.4416C18.3191 10.2893 18.1878 10.1489 18 10.0208V10H21.4483C22.1074 10 22.6283 10.1055 23.0114 10.3173C23.3946 10.5287 23.655 10.7776 23.7932 11.0652C23.9309 11.3528 24 11.6331 24 11.907C24 13.0293 23.2855 13.7168 21.8564 13.9695L21.115 14.032C20.9004 14.0043 20.7568 13.9903 20.6839 13.9903C21.4502 13.6993 21.8333 13.171 21.8333 12.405C21.8333 11.4901 21.4253 11.0328 20.6093 11.0328V15.6911C20.6093 16.287 20.7874 16.7094 21.1437 16.9584V17H18V16.9792C18.3372 16.7751 18.5058 16.4271 18.5058 15.9353ZM25.6999 13.8876L27.2421 13.8866L26.4513 11.766L25.6999 13.8876ZM23.8956 15.4071L25.4179 11.2715C25.513 10.9935 25.5603 10.7831 25.5603 10.641C25.5603 10.4119 25.423 10.2053 25.1484 10.0208V10H27.8905L30.077 15.5618C30.2018 15.9146 30.3272 16.185 30.4536 16.3719C30.5801 16.5586 30.7618 16.7544 31 16.9585V17H27.5879V16.9585C27.8956 16.7959 28.0494 16.5936 28.0494 16.3514C28.0494 16.2028 28.0204 16.0505 27.9617 15.8948L27.6102 14.8831H25.374L25.0441 15.7752C24.9706 15.9795 24.9194 16.1786 24.8903 16.3722C24.8903 16.4725 24.9251 16.5711 24.9946 16.6679C25.0641 16.7649 25.1666 16.8616 25.3022 16.9585V17H23V16.9585C23.2347 16.7718 23.4085 16.5693 23.5219 16.3514C23.5771 16.2407 23.633 16.1126 23.6899 15.9675C23.7463 15.822 23.8153 15.6352 23.8956 15.4071ZM29.7903 10.7892L31.9756 13.8168V15.9563C31.9756 16.4686 31.8082 16.8027 31.4727 16.9584V17H34.6683V16.9584C34.4387 16.7784 34.2959 16.5776 34.2391 16.3559C34.19 16.1898 34.1637 16.0722 34.16 16.0028C34.1574 15.9623 34.1538 15.9166 34.1497 15.8657C34.1485 15.8513 34.1473 15.8365 34.1461 15.8213C34.1402 15.752 34.1373 15.6792 34.1373 15.6029V13.8168L37 10H34.3464V10.0205C34.5874 10.1384 34.7192 10.2939 34.7416 10.4881C34.7533 10.5745 34.7397 10.6785 34.7024 10.7994C34.6456 10.9693 34.5705 11.118 34.4764 11.2462L33.5052 12.534L31.7946 10H29V10.0205C29.1393 10.1036 29.2652 10.1955 29.3782 10.296C29.5139 10.431 29.6509 10.5954 29.7903 10.7892Z" fill="#005AAA"/>
</g>
</g>
<defs>
<linearGradient id="paint0_linear_3166_9694" x1="8.05429" y1="29.2489" x2="8.05429" y2="40" gradientUnits="userSpaceOnUse">
<stop stop-color="#840B1D"/>
<stop offset="1" stop-color="#082B69"/>
</linearGradient>
<clipPath id="clip0_3166_9694">
<rect width="40" height="40" fill="white"/>
</clipPath>
</defs>
</svg>
